<?xml version="1.0" encoding="utf-8"?>
<!-- Generator: Adobe Illustrator 24.0.0, SVG Export Plug-In . SVG Version: 6.00 Build 0)  -->
<svg version="1.0" id="Layer_1" xmlns="http://www.w3.org/2000/svg" xmlns:xlink="http://www.w3.org/1999/xlink" x="0px" y="0px"
	 viewBox="0 0 136.95 136.95" style="enable-background:new 0 0 136.95 136.95;" xml:space="preserve" height="53" width="112">
<style type="text/css">
	path{
		fill:#fff;
	}
</style>
	<g>
	<path d="M137.02-0.05C111.8,6.22,91.94,26.06,85.66,51.29C110.88,45.01,130.75,25.17,137.02-0.05z"/>
	<path d="M137.02,136.9c-6.27-25.22-26.14-45.09-51.36-51.36C91.94,110.76,111.8,130.62,137.02,136.9z"/>
	<path d="M0.07,136.9c25.22-6.27,45.09-26.14,51.36-51.36C26.21,91.81,6.35,111.68,0.07,136.9z"/>
	<path d="M0.07-0.05c6.27,25.22,26.14,45.07,51.36,51.34C45.16,26.06,25.29,6.22,0.07-0.05z"/>
	<path d="M68.55,83.43c5.9,0,11.63,0.73,17.11,2.11c-1.38-5.48-2.1-11.21-2.1-17.11c0-5.92,0.73-11.65,2.1-17.14
		c-5.48,1.38-11.21,2.11-17.11,2.11c-5.9,0-11.63-0.73-17.11-2.11c1.38,5.48,2.11,11.21,2.11,17.14c0,5.9-0.73,11.63-2.11,17.11
		C56.91,84.16,62.65,83.43,68.55,83.43z"/>
</g>
</svg>
