<svg width="107" height="33" viewBox="0 0 107 33" fill="none" xmlns="http://www.w3.org/2000/svg">
<g clip-path="url(#clip0_4261_2177)">
<path d="M17.7039 0.00317383H0V0.738687H7.22768V21.7417H10.4762V0.738687H17.7039V0.00317383Z" fill="white"/>
<path d="M7.29681 32.8137V25.7332H11.8915V26.3052H7.97153V28.8615H11.536V29.4336H7.97153V32.8137H7.29681Z" fill="#9D9D9C"/>
<path d="M14.0505 26.6058V25.7297H14.7055V26.6058H14.0505ZM14.0802 32.8135V27.7173H14.6726V32.8135H14.0802Z" fill="#9D9D9C"/>
<path d="M17.9935 32.8137H17.4011V27.7174H17.9935V28.43C18.2305 28.1816 18.4773 27.9756 18.7307 27.8187C18.9842 27.6618 19.2903 27.5801 19.649 27.5801C19.965 27.5801 20.2612 27.6357 20.5311 27.7435C20.801 27.8514 21.0281 28.0377 21.2124 28.3091C21.3375 28.4921 21.4099 28.6784 21.4362 28.8746C21.4592 29.0674 21.4691 29.2701 21.4691 29.4793V32.8104H20.8767V29.4891C20.8767 29.0315 20.7746 28.685 20.5706 28.4562C20.3665 28.2273 20.0275 28.1129 19.5503 28.1129C19.366 28.1129 19.1981 28.1391 19.0467 28.1979C18.8953 28.2535 18.7571 28.3254 18.6353 28.4169C18.5135 28.5085 18.4115 28.6131 18.3259 28.734C18.2403 28.8517 18.1712 28.9759 18.1284 29.1067C18.0692 29.2701 18.033 29.427 18.0198 29.5774C18.0067 29.7278 18.0001 29.8945 18.0001 30.071V32.8137H17.9935Z" fill="#9D9D9C"/>
<path d="M26.4686 29.8454C26.5805 29.829 26.7154 29.8127 26.8701 29.7833C27.0248 29.7604 27.1532 29.7211 27.2519 29.6754C27.3506 29.6296 27.4132 29.5544 27.4362 29.4433C27.4593 29.3354 27.4691 29.2373 27.4691 29.1458C27.4691 28.8418 27.3737 28.5966 27.1795 28.4038C26.982 28.2076 26.6562 28.1128 26.1954 28.1128C25.9913 28.1128 25.8004 28.1324 25.6293 28.1684C25.4582 28.2044 25.3068 28.2665 25.1784 28.3547C25.05 28.443 24.9447 28.5607 24.8624 28.711C24.7801 28.8581 24.7275 29.0412 24.7012 29.2635H24.0923C24.112 28.9627 24.1811 28.7078 24.2996 28.492C24.4181 28.2795 24.5728 28.1063 24.7604 27.9723C24.948 27.8382 25.1652 27.7369 25.4154 27.6781C25.6622 27.6159 25.9255 27.5833 26.202 27.5833C26.4587 27.5833 26.7023 27.6094 26.9294 27.6682C27.1565 27.7238 27.3539 27.8121 27.5218 27.933C27.6897 28.054 27.8213 28.2174 27.9167 28.4201C28.0122 28.6228 28.0616 28.8745 28.0616 29.1687V31.9408C28.0616 32.1729 28.1044 32.3167 28.1866 32.3788C28.2689 32.4442 28.4335 32.4278 28.6869 32.3363V32.7972C28.6408 32.8103 28.575 32.8299 28.4861 32.8593C28.3973 32.8822 28.3084 32.8953 28.2228 32.8953C28.1307 32.8953 28.0418 32.8855 27.9562 32.8691C27.8575 32.8528 27.7785 32.8234 27.7193 32.7743C27.66 32.7253 27.6107 32.6665 27.5745 32.5978C27.5382 32.5292 27.5119 32.4507 27.502 32.369C27.4889 32.2873 27.4823 32.2023 27.4823 32.1107C27.2322 32.3853 26.9425 32.5945 26.62 32.7384C26.2974 32.8855 25.9453 32.9574 25.5701 32.9574C25.3462 32.9574 25.129 32.928 24.9217 32.8691C24.7143 32.807 24.53 32.7188 24.372 32.5913C24.214 32.4671 24.089 32.3134 23.9968 32.1369C23.9047 31.9538 23.8586 31.7413 23.8586 31.4929C23.8586 30.6266 24.4543 30.1167 25.6523 29.9565L26.4686 29.8454ZM27.4691 30.1363C27.219 30.2442 26.9656 30.3128 26.7056 30.3422C26.4488 30.3749 26.1921 30.4044 25.9321 30.4207C25.4779 30.4534 25.1224 30.5547 24.869 30.7247C24.6156 30.898 24.4872 31.1562 24.4872 31.5027C24.4872 31.6596 24.5168 31.7969 24.5794 31.9113C24.6419 32.0257 24.7242 32.1238 24.8262 32.1957C24.9283 32.2709 25.0467 32.3298 25.1817 32.3625C25.3166 32.3984 25.4549 32.418 25.5931 32.418C25.8334 32.418 26.0638 32.3919 26.2876 32.3298C26.5114 32.2677 26.7121 32.1794 26.8866 32.0584C27.061 31.9375 27.2025 31.7806 27.3079 31.5975C27.4132 31.4145 27.4658 31.1889 27.4658 30.9307V30.1363H27.4691Z" fill="#9D9D9C"/>
<path d="M31.4187 32.8137H30.8263V27.7174H31.4187V28.43C31.6557 28.1816 31.9025 27.9756 32.156 27.8187C32.4094 27.6618 32.7155 27.5801 33.0742 27.5801C33.3902 27.5801 33.6864 27.6357 33.9563 27.7435C34.2262 27.8514 34.4533 28.0377 34.6376 28.3091C34.7627 28.4921 34.8351 28.6784 34.8614 28.8746C34.8845 29.0674 34.8943 29.2701 34.8943 29.4793V32.8104H34.3019V29.4891C34.3019 29.0315 34.1999 28.685 33.9958 28.4562C33.7917 28.2273 33.4527 28.1129 32.9755 28.1129C32.7912 28.1129 32.6233 28.1391 32.4719 28.1979C32.3205 28.2535 32.1823 28.3254 32.0605 28.4169C31.9388 28.5085 31.8367 28.6131 31.7511 28.734C31.6656 28.855 31.5997 28.9759 31.5537 29.1067C31.4944 29.2701 31.4582 29.427 31.4451 29.5774C31.4319 29.7278 31.4253 29.8945 31.4253 30.071V32.8137H31.4187Z" fill="#9D9D9C"/>
<path d="M41.1741 29.3223C41.0688 28.9431 40.8878 28.6457 40.6278 28.4332C40.3711 28.2207 40.0419 28.1128 39.647 28.1128C39.3409 28.1128 39.0809 28.1749 38.8637 28.3024C38.6464 28.4234 38.4654 28.5901 38.3305 28.7993C38.1889 29.0052 38.0869 29.2406 38.0211 29.4956C37.9553 29.7571 37.9223 30.0186 37.9223 30.2801C37.9223 30.5482 37.9553 30.8097 38.0178 31.0647C38.0803 31.3229 38.1791 31.5518 38.3206 31.7544C38.4621 31.9571 38.6398 32.1205 38.8538 32.2415C39.0743 32.3624 39.3376 32.4246 39.6503 32.4246C40.0913 32.4246 40.4468 32.3036 40.7167 32.0617C40.98 31.8198 41.1511 31.4831 41.2235 31.0581H41.8587C41.8061 31.3393 41.7205 31.5975 41.6053 31.8263C41.4934 32.0617 41.342 32.2611 41.161 32.4278C40.98 32.5945 40.7627 32.722 40.5126 32.8136C40.2625 32.9084 39.9728 32.9541 39.6536 32.9541C39.2422 32.9541 38.89 32.8855 38.5938 32.7482C38.2943 32.6076 38.0507 32.4213 37.8598 32.1827C37.6689 31.944 37.5274 31.6596 37.4352 31.3327C37.3431 31.0058 37.297 30.6561 37.297 30.2801C37.297 29.9238 37.3464 29.5871 37.4484 29.2602C37.5504 28.9333 37.7018 28.6489 37.8993 28.4005C38.0968 28.152 38.3436 27.9526 38.6366 27.8055C38.9295 27.6584 39.2685 27.5833 39.6536 27.5833C40.246 27.5833 40.7232 27.7271 41.0919 28.0049C41.4605 28.2861 41.6876 28.7274 41.7797 29.3256H41.1741V29.3223Z" fill="#9D9D9C"/>
<path d="M44.314 26.6058V25.7297H44.9657V26.6058H44.314ZM44.3436 32.8135V27.7173H44.9361V32.8135H44.3436Z" fill="#9D9D9C"/>
<path d="M50.0178 29.8454C50.1297 29.829 50.2647 29.8127 50.4194 29.7833C50.5741 29.7604 50.7024 29.7211 50.7979 29.6754C50.8999 29.6296 50.9591 29.5544 50.9822 29.4433C51.0052 29.3354 51.0184 29.2373 51.0184 29.1458C51.0184 28.8418 50.9196 28.5966 50.7255 28.4038C50.528 28.2076 50.2054 28.1128 49.7414 28.1128C49.5406 28.1128 49.3497 28.1324 49.1785 28.1684C49.0074 28.2044 48.856 28.2665 48.7243 28.3547C48.596 28.443 48.4907 28.5607 48.4084 28.711C48.3261 28.8581 48.2702 29.0412 48.2471 29.2635H47.6415C47.6646 28.9627 47.7337 28.7078 47.8489 28.492C47.9674 28.2795 48.1253 28.1063 48.3096 27.9723C48.4973 27.8382 48.7178 27.7369 48.9613 27.6781C49.2115 27.6159 49.4715 27.5833 49.7512 27.5833C50.008 27.5833 50.2515 27.6094 50.4786 27.6682C50.7057 27.7238 50.8999 27.8121 51.071 27.933C51.2356 28.054 51.3706 28.2174 51.466 28.4201C51.5614 28.6228 51.6108 28.8745 51.6108 29.1687V31.9408C51.6108 32.1729 51.6536 32.3167 51.7326 32.3788C51.8149 32.4442 51.9827 32.4278 52.2362 32.3363V32.7972C52.1868 32.8103 52.121 32.8299 52.0354 32.8593C51.9432 32.8822 51.8577 32.8953 51.7721 32.8953C51.6799 32.8953 51.5878 32.8855 51.5022 32.8691C51.4035 32.8528 51.3245 32.8234 51.2619 32.7743C51.2027 32.7253 51.1566 32.6665 51.1204 32.5978C51.0842 32.5292 51.0579 32.4507 51.048 32.369C51.0316 32.2873 51.025 32.2023 51.025 32.1107C50.7748 32.3853 50.4852 32.5945 50.1659 32.7384C49.8401 32.8855 49.4912 32.9574 49.1127 32.9574C48.8889 32.9574 48.6717 32.928 48.4643 32.8691C48.257 32.807 48.076 32.7188 47.918 32.5913C47.7633 32.4671 47.6349 32.3134 47.5428 32.1369C47.4506 31.9538 47.4045 31.7413 47.4045 31.4929C47.4045 30.6266 48.0003 30.1167 49.195 29.9565L50.0178 29.8454ZM51.0184 30.1363C50.7682 30.2442 50.5115 30.3128 50.2548 30.3422C49.9981 30.3749 49.7414 30.4044 49.4846 30.4207C49.0304 30.4534 48.675 30.5547 48.4183 30.7247C48.1681 30.898 48.0398 31.1562 48.0398 31.5027C48.0398 31.6596 48.0694 31.7969 48.1319 31.9113C48.1977 32.0257 48.28 32.1238 48.3821 32.1957C48.4841 32.2709 48.6026 32.3298 48.7375 32.3625C48.8725 32.3984 49.0107 32.418 49.1489 32.418C49.3892 32.418 49.6196 32.3919 49.8401 32.3298C50.0672 32.2677 50.268 32.1794 50.4391 32.0584C50.6168 31.9375 50.7584 31.7806 50.8604 31.5975C50.9657 31.4112 51.0184 31.1889 51.0184 30.9307V30.1363Z" fill="#9D9D9C"/>
<path d="M54.4644 32.8137V25.7332H55.0568V32.8137H54.4644Z" fill="#9D9D9C"/>
<path d="M62.1101 30.6986C62.1364 31.0125 62.2088 31.2805 62.3207 31.4995C62.4359 31.7218 62.5873 31.9016 62.7683 32.0389C62.9526 32.1762 63.16 32.2775 63.4003 32.3396C63.6405 32.4018 63.8907 32.4312 64.1638 32.4312C64.4798 32.4312 64.753 32.3952 64.9867 32.3168C65.217 32.2383 65.4014 32.1272 65.5495 31.9931C65.6943 31.8591 65.7996 31.7055 65.872 31.5289C65.9411 31.3492 65.9773 31.1628 65.9773 30.9667C65.9773 30.6921 65.9115 30.4665 65.7897 30.2966C65.6614 30.1266 65.5001 29.986 65.2993 29.8814C65.0986 29.7735 64.8649 29.6853 64.6049 29.6199C64.3449 29.5545 64.075 29.4891 63.8018 29.427C63.5253 29.3649 63.2587 29.2897 62.9954 29.2047C62.7387 29.1197 62.505 29.0053 62.3043 28.8615C62.1035 28.7144 61.9389 28.5346 61.8138 28.3058C61.6888 28.0802 61.623 27.7925 61.623 27.446C61.623 27.2041 61.6789 26.9655 61.7776 26.7367C61.8797 26.5078 62.0311 26.3052 62.2351 26.1254C62.4359 25.9489 62.6893 25.8083 62.9921 25.7037C63.2949 25.5991 63.6438 25.55 64.0421 25.55C64.4469 25.55 64.7958 25.6056 65.0953 25.7135C65.3948 25.8246 65.6449 25.9815 65.8457 26.1711C66.0432 26.3673 66.1913 26.5863 66.29 26.8446C66.392 27.0995 66.4414 27.3709 66.4414 27.6585H65.7963C65.7963 27.3905 65.7502 27.1584 65.6548 26.9622C65.5561 26.7661 65.4277 26.6026 65.2631 26.4784C65.0986 26.3542 64.9077 26.2627 64.7003 26.2006C64.4864 26.1417 64.2724 26.1123 64.0453 26.1123C63.7031 26.1123 63.4134 26.1613 63.1797 26.2561C62.9428 26.3542 62.7617 26.4752 62.6202 26.6255C62.482 26.7759 62.3865 26.9426 62.3339 27.1257C62.2812 27.312 62.2713 27.4951 62.3043 27.6781C62.347 27.907 62.4392 28.09 62.584 28.2273C62.7288 28.3646 62.9099 28.4758 63.1205 28.564C63.3311 28.6555 63.5648 28.7242 63.8182 28.783C64.0717 28.8386 64.3317 28.8974 64.595 28.9596C64.8583 29.0217 65.115 29.0969 65.3586 29.1818C65.6087 29.2668 65.8292 29.378 66.0201 29.5251C66.211 29.6722 66.3624 29.852 66.4809 30.0808C66.5961 30.3064 66.6553 30.5875 66.6553 30.9275C66.6553 31.5845 66.425 32.0945 65.974 32.4541C65.5166 32.8136 64.878 32.9967 64.0519 32.9967C63.68 32.9967 63.3377 32.9477 63.025 32.8529C62.7058 32.7581 62.4326 32.6142 62.2022 32.4214C61.9718 32.2252 61.7908 31.9866 61.6592 31.7022C61.5308 31.4211 61.4683 31.0811 61.4683 30.6954H62.1101V30.6986Z" fill="#9D9D9C"/>
<path d="M69.3673 30.4045C69.3673 30.6791 69.4035 30.9406 69.476 31.1858C69.5484 31.431 69.657 31.6435 69.8018 31.8233C69.9433 32.0063 70.121 32.1502 70.3416 32.258C70.5588 32.3659 70.8089 32.4182 71.0953 32.4182C71.4836 32.4182 71.8161 32.3169 72.0925 32.1142C72.3723 31.9115 72.5566 31.6206 72.6488 31.2479H73.3103C73.2379 31.4898 73.1457 31.7154 73.024 31.9213C72.9088 32.1273 72.7574 32.3071 72.5796 32.464C72.3986 32.6143 72.1913 32.7386 71.9444 32.8236C71.6976 32.9086 71.4145 32.9511 71.092 32.9511C70.6806 32.9511 70.3284 32.8824 70.0322 32.7451C69.7327 32.6045 69.4858 32.4182 69.2982 32.1796C69.1073 31.9409 68.9658 31.6565 68.8736 31.3329C68.7782 31.006 68.7354 30.6595 68.7354 30.2836C68.7354 29.9077 68.7914 29.5612 68.8967 29.231C69.0053 28.9041 69.16 28.6164 69.3608 28.3713C69.5615 28.1261 69.8084 27.93 70.098 27.7894C70.3876 27.6456 70.7201 27.5769 71.0887 27.5769C71.793 27.5769 72.3493 27.8155 72.7508 28.2993C73.1523 28.7831 73.3531 29.4827 73.3432 30.4013H69.3673V30.4045ZM72.7146 29.9109C72.7146 29.6625 72.6817 29.4271 72.6093 29.2081C72.5434 28.9858 72.4381 28.7962 72.3032 28.636C72.1682 28.4759 71.9971 28.3484 71.7963 28.2536C71.589 28.162 71.3553 28.113 71.092 28.113C70.8287 28.113 70.595 28.162 70.3942 28.2601C70.1935 28.3614 70.0223 28.4922 69.8808 28.6557C69.736 28.8191 69.6241 29.0087 69.5385 29.2277C69.4529 29.4435 69.3937 29.6723 69.3673 29.9142H72.7146V29.9109Z" fill="#9D9D9C"/>
<path d="M76.3383 32.8136H75.7458V27.7173H76.3383V28.6718H76.358C76.5226 28.2665 76.7365 27.9853 76.9998 27.8219C77.2566 27.665 77.6054 27.5833 78.0333 27.5833V28.224C77.6976 28.2174 77.4178 28.2697 77.2006 28.3809C76.9801 28.4888 76.8089 28.6424 76.6806 28.832C76.5522 29.0249 76.4601 29.2471 76.4107 29.5054C76.3613 29.7636 76.3383 30.035 76.3383 30.3161V32.8136Z" fill="#9D9D9C"/>
<path d="M79.6757 27.7173H80.3208L81.9829 32.0846L83.6482 27.7173H84.2901L82.3021 32.8136H81.6373L79.6757 27.7173Z" fill="#9D9D9C"/>
<path d="M86.4393 26.6058V25.7297H87.0942V26.6058H86.4393ZM86.4689 32.8135V27.7173H87.0613V32.8135H86.4689Z" fill="#9D9D9C"/>
<path d="M93.4234 29.3223C93.3148 28.9431 93.1371 28.6457 92.8771 28.4332C92.617 28.2207 92.2879 28.1128 91.893 28.1128C91.5902 28.1128 91.3268 28.1749 91.1129 28.3024C90.8924 28.4234 90.7147 28.5901 90.5764 28.7993C90.4382 29.0052 90.3362 29.2406 90.2671 29.4956C90.2012 29.7571 90.1683 30.0186 90.1683 30.2801C90.1683 30.5482 90.1979 30.8097 90.2638 31.0647C90.3296 31.3229 90.425 31.5518 90.5666 31.7544C90.7048 31.9571 90.8825 32.1205 91.0998 32.2415C91.3203 32.3624 91.5836 32.4246 91.893 32.4246C92.3373 32.4246 92.6927 32.3036 92.9593 32.0617C93.2259 31.8198 93.3971 31.4831 93.4695 31.0581H94.1014C94.0488 31.3393 93.9665 31.5975 93.8513 31.8263C93.7361 32.0617 93.588 32.2611 93.4037 32.4278C93.2226 32.5945 93.0054 32.722 92.7553 32.8136C92.5051 32.9084 92.2155 32.9541 91.8962 32.9541C91.4881 32.9541 91.1327 32.8855 90.8364 32.7482C90.5402 32.6076 90.2934 32.4213 90.1058 32.1827C89.9116 31.944 89.7701 31.6596 89.6779 31.3327C89.5858 31.0058 89.5397 30.6561 89.5397 30.2801C89.5397 29.9238 89.5923 29.5871 89.6911 29.2602C89.7931 28.9333 89.9445 28.6489 90.142 28.4005C90.3395 28.152 90.5896 27.9526 90.8825 27.8055C91.1755 27.6584 91.5145 27.5833 91.8962 27.5833C92.4887 27.5833 92.9692 27.7271 93.3378 28.0049C93.7065 28.2861 93.9303 28.7274 94.0224 29.3256H93.4234V29.3223Z" fill="#9D9D9C"/>
<path d="M96.8694 30.4045C96.8694 30.6791 96.9056 30.9406 96.978 31.1858C97.0504 31.431 97.1623 31.6435 97.3039 31.8233C97.4454 32.0063 97.6264 32.1502 97.8436 32.258C98.0642 32.3659 98.3143 32.4182 98.5974 32.4182C98.989 32.4182 99.3181 32.3169 99.5979 32.1142C99.8777 31.9115 100.059 31.6206 100.151 31.2479H100.816C100.743 31.4898 100.648 31.7154 100.529 31.9213C100.411 32.1273 100.263 32.3071 100.085 32.464C99.904 32.6143 99.6934 32.7386 99.4498 32.8236C99.2062 32.9086 98.9232 32.9511 98.5974 32.9511C98.1859 32.9511 97.8338 32.8824 97.5376 32.7451C97.2413 32.6045 96.9945 32.4182 96.8036 32.1796C96.6127 31.9409 96.4745 31.6565 96.3823 31.3329C96.2869 31.006 96.2408 30.6595 96.2408 30.2836C96.2408 29.9077 96.2967 29.5612 96.4053 29.231C96.514 28.9041 96.6687 28.6164 96.8694 28.3713C97.0702 28.1261 97.317 27.93 97.6034 27.7894C97.8963 27.6456 98.2287 27.5769 98.5941 27.5769C99.3017 27.5769 99.8546 27.8155 100.259 28.2993C100.661 28.7831 100.858 29.4827 100.852 30.4013H96.8694V30.4045ZM100.213 29.9109C100.213 29.6625 100.184 29.4271 100.108 29.2081C100.042 28.9858 99.9369 28.7962 99.802 28.636C99.667 28.4759 99.4959 28.3484 99.2951 28.2536C99.091 28.1588 98.8541 28.1097 98.5908 28.1097C98.3275 28.1097 98.0938 28.1588 97.893 28.2568C97.6922 28.3582 97.5211 28.4889 97.3796 28.6524C97.238 28.8158 97.1228 29.0054 97.0373 29.2245C96.9517 29.4402 96.8958 29.669 96.8694 29.9109H100.213Z" fill="#9D9D9C"/>
<path d="M103.564 31.2183C103.656 31.6596 103.824 31.9702 104.067 32.15C104.308 32.333 104.653 32.4213 105.101 32.4213C105.318 32.4213 105.506 32.3951 105.664 32.3428C105.822 32.2905 105.95 32.2219 106.055 32.1336C106.161 32.0421 106.233 31.944 106.289 31.8329C106.342 31.7217 106.368 31.6041 106.368 31.4766C106.368 31.2281 106.289 31.0451 106.125 30.9241C105.967 30.8032 105.763 30.7051 105.519 30.6397C105.275 30.5711 105.012 30.5122 104.722 30.4632C104.439 30.4142 104.176 30.339 103.933 30.2409C103.689 30.1396 103.485 30.0023 103.324 29.8192C103.162 29.6329 103.083 29.3746 103.083 29.0412C103.083 28.6162 103.238 28.2665 103.554 27.9951C103.867 27.7205 104.311 27.5833 104.884 27.5833C105.44 27.5833 105.891 27.7075 106.236 27.9526C106.585 28.1978 106.793 28.6097 106.868 29.1883H106.263C106.21 28.7928 106.062 28.5149 105.812 28.3547C105.562 28.1945 105.252 28.1161 104.874 28.1161C104.495 28.1161 104.209 28.1945 104.015 28.3547C103.817 28.5149 103.715 28.7274 103.715 28.9889C103.715 29.221 103.798 29.3942 103.959 29.5152C104.12 29.6362 104.324 29.7342 104.568 29.8094C104.808 29.8846 105.075 29.9532 105.361 30.0088C105.644 30.0709 105.907 30.1526 106.151 30.2605C106.394 30.3684 106.598 30.5122 106.763 30.6986C106.921 30.8816 107.003 31.1399 107.003 31.4635C107.003 31.7054 106.951 31.9211 106.845 32.1075C106.737 32.2971 106.595 32.4507 106.408 32.5749C106.223 32.6992 106.003 32.7907 105.753 32.8561C105.496 32.9214 105.219 32.9509 104.913 32.9509C104.611 32.9509 104.341 32.9051 104.104 32.8168C103.87 32.7286 103.669 32.6044 103.508 32.4474C103.343 32.2905 103.215 32.1075 103.12 31.8983C103.027 31.6858 102.975 31.4602 102.965 31.2183H103.564Z" fill="#9D9D9C"/>
<path d="M33.4626 21.7418L33.512 21.7221L24.7868 0H22.8877L22.0879 1.99406V1.99733L14.1592 21.7418H15.0314L22.5257 3.08588L30.0199 21.7418H33.4626Z" fill="white"/>
<path d="M106.951 21.7418L107 21.7221L98.2748 0H96.3724L95.5759 1.99406V1.99733L87.6439 21.7418H88.5194L96.0137 3.08588L103.508 21.7418H106.951Z" fill="white"/>
<path d="M66.5664 21.7418L66.6158 21.7221L57.8906 0H55.9915L55.1917 1.99406V1.99733L47.263 21.7418H48.1352L55.6295 3.08588L63.1237 21.7418H66.5664Z" fill="white"/>
<path d="M41.3847 21.7418L42.698 18.4467V18.4532L50.1067 0H49.2312L41.704 18.7376L34.1768 0H30.9678L30.7177 0.0980684L39.4133 21.7418H41.3847Z" fill="white"/>
<path d="M84.6389 21.7417V21.6076V18.1099V0.0489391H83.826V20.1137L72.8857 0.00317383H70.3448H69.9597H69.624V21.7417H70.4337V2.29144L81.0185 21.7417H84.6389Z" fill="white"/>
</g>
<defs>
<clipPath id="clip0_4261_2177">
<rect width="107" height="33" fill="white"/>
</clipPath>
</defs>
</svg>
