<svg version="1.2" xmlns="http://www.w3.org/2000/svg" viewBox="0 0 112 31" width="112" height="31">
	<title>Subtract 1-svg</title>
	<defs>
		<clipPath clipPathUnits="userSpaceOnUse" id="cp1">
			<path d="m0-59h112v90h-112z"/>
		</clipPath>
	</defs>
	<style>
		.s0 { fill: #ffffff } 
	</style>
	<g id="Clip-Path" clip-path="url(#cp1)">
		<g id="Layer">
			<path id="Layer" fill-rule="evenodd" class="s0" d="m0.8-58.8c7.2 2 13.3 7.1 16.6 13.8 0.8 1.6 1.4 3.1 1.9 5q0 0 0.1 0.1 0 0.1 0.1 0.2c0.1 0.2 0.3 0.2 1 0.3q0 0.1 0.1 0.1c3.2 0.6 6.8 0.7 10.1 0.1 0.9-0.2 1.6-0.4 1.7-0.4 0 0 0.1-0.5 0.2-1 0.9-3 2.4-6 4.3-8.5 3.5-4.7 8.2-7.9 13.7-9.6 0.5-0.2 1-0.3 1-0.3 0.2 0 0.1 0.2-0.2 1.4-2.6 8.3-9.1 14.9-17.4 17.5-0.6 0.2-1.2 0.4-1.3 0.4q-0.2 0.1-0.2 0.1c-0.2 0.1-0.2 0.3-0.4 1.1v0.1c-0.5 2.2-0.6 4.9-0.5 7.2 0.2 1.4 0.5 3.3 0.7 4.3 0.1 0.2 0.1 0.3 0.5 0.4 4.4 1.2 8 3.2 11.3 6.3 2.2 2 4.3 4.8 5.7 7.6 0.7 1.3 1.4 3.3 1.8 4.8 0.2 0.6 0.2 0.6 0.1 0.6-3.3-0.9-5.6-2-8.1-3.6-5.4-3.5-9.4-9.1-11-15.2-0.1-0.3-0.2-0.6-0.3-0.6-0.1-0.1-2.1-0.5-3-0.6-2.7-0.4-5.9-0.3-8.7 0.3h-0.1c-0.8 0.2-1 0.2-1.1 0.4q0 0 0 0.1v0.1c-0.5 1.9-1.6 4.5-2.6 6.4-1.9 3.4-4.6 6.3-7.9 8.6-1.8 1.3-4.1 2.6-6.3 3.3-0.8 0.3-2.5 0.8-2.5 0.8-0.1 0 0.1-0.4 0.2-0.9 1.4-4.8 4.2-9.3 7.9-12.6q4.6-4 10.3-5.7c0.5-0.1 0.9-0.2 0.9-0.3 0.2-0.1 0.7-3.1 0.8-4.6 0.1-1.9 0-3.7-0.3-5.7-0.1-1.1-0.4-2.5-0.5-2.6 0 0-0.4-0.1-0.9-0.3-2.6-0.7-5.2-1.9-7.5-3.5-5.3-3.5-9.1-8.9-10.8-15.1q0 0 0-0.1-0.1-0.3-0.1-0.3c0.1-0.1 0.2-0.1 0.6 0.1q0.1 0 0.1 0zm0.6 78.8h14.4l14.4-0.1v3.9h-13.2c-8.3 0-13.4 0-13.8-0.1-2-0.2-2.7-0.7-3-2.2-0.1-0.4-0.1-1.5-0.1-10.3l-0.1-9.7h1.4zm33.2-7.5v11.2h-1.4v-22.3h0.7 0.7zm68.5-10.7v0.5l-2.1 1.1c-0.8 0.5-1.6 0.9-2.1 1.2q-0.3 0.2-0.4 0.2l-0.4 0.3v-1l2.5-1.3c1.3-0.8 2.4-1.4 2.5-1.4 0 0 0 0.2 0 0.4zm0 2.5c0 0-0.9 0.5-2 1.1l-2 1 5.4 0.1c4.9 0 5.4 0 5.8 0.1q1.2 0.3 1.5 1.3c0.1 0.1 0.1 0.8 0.1 1.6l0.1 1.4h-7.3c-6.8 0-7.3 0-7.6-0.1q0 0-0.1-0.1 0 0 0 0-0.1 0-0.1 0 0 0 0 0c0 0-0.1 0.1-0.1 0.2-0.2 0.7-0.8 1.6-1.4 2.1-0.6 0.6-1.5 0.8-2.9 0.6l-0.7-0.2-0.1-1.1 0.7 0.1c0.8 0.2 1.5 0.2 1.8 0.1 0.4-0.2 0.8-0.6 1.3-1.3l0.5-0.6-0.3-1.9c-0.2-1-0.4-1.9-0.4-2 0-0.1 0.1-0.2 0.5-0.4 0.2-0.1 0.4-0.2 0.4-0.2 0.1 0 0.2 0.6 0.3 1.5 0.2 0.8 0.3 1.6 0.4 1.7 0 0.1 0.2 0.2 0.3 0.3 0.2 0.1 0.7 0.1 7 0.1h6.7v-0.6c0-0.9-0.1-1.1-0.5-1.3l-0.4-0.2h-5.9-6v-1.6l2.5-1.5 2.5-1.4v0.6c0 0.3 0 0.5 0 0.6zm-18.2 1.8c0.8 0.2 1.2 0.6 1.3 1.3 0.1 0.3 0.4 2.9 0.4 3.4v0.1h-1.6c-2.6 0-2.6 0-2.3-2.3 0.1-0.7 0.2-1.3 0.2-1.4 0-0.2 0-0.2-0.2-0.2l-0.1-0.1v-0.4c0-0.3 0.1-0.5 0.1-0.6 0-0.1 0-0.1 0.9 0 0.5 0.1 1.1 0.2 1.3 0.2zm-39.7 0c1.4 0.1 1.9 0.3 2.4 0.8 0.7 0.7 0.9 1.4 1.9 6.1 0.4 1.8 0.8 3.2 0.8 3.3 0 0.1-0.1 0.1-1 0.1-0.6 0-1.1 0-1.1 0 0-0.1-0.9-4.3-1-4.9-0.4-1.3-0.8-2-1.3-2.3-0.6-0.4-0.9-0.4-4-0.4l-2.8-0.1v11.1h38.6v3.8h-18.7c-17.1 0-18.7 0-19.1-0.1-1-0.2-1.5-0.5-1.8-1.1-0.6-0.9-0.6-2.1 0-9.8 0.2-3.1 0.4-5.9 0.4-6.1l0.1-0.4h2.8c1.6 0 3.3 0 3.8 0zm45.6 0.1c0.8 0.4 1.1 1.1 1.1 3.3 0 0.9 0 1.2-0.1 1.4q0 0.2-0.1 0.4c-0.3 0.6-0.9 1.5-1.2 1.8-0.7 0.6-1.6 0.8-3 0.5l-0.8-0.2v-0.5c0-0.6 0-0.6 0.1-0.6 0.3 0.1 1.3 0.3 1.7 0.3 0.7 0 1.1-0.2 1.7-0.8 0.3-0.3 0.5-0.6 0.6-0.7l0.1-0.2h-1c-1.1 0-1.4 0-1.7-0.3-0.3-0.3-0.3-0.5-0.1-2.4 0-1 0.1-1.9 0.1-2v-0.2l1.2 0.1c0.9 0 1.2 0 1.4 0.1zm7.5 9.5c0 2.4-0.1 3.5-0.1 3.7-0.1 0.3-0.5 0.7-0.7 0.9h-0.1q-0.1 0.1-0.1 0.1c-0.5 0.2-1.1 0.2-6.3 0.2q-5.5 0-5.9 0.1c-0.8 0.1-1 0.5-1.1 1.2v0.5h8.4c7.2 0 8.5 0 8.4 0.1 0 0 0 0.3-0.1 0.6l-0.1 0.5h-17.8v-0.9c0-0.5 0.1-1.1 0.1-1.3 0.2-0.7 0.6-1.3 1.2-1.6 0.7-0.4 0.9-0.4 7-0.4 4 0 5.7 0 5.8-0.1l0.2-0.1v-6.7l0.3-0.1q0.1 0 0.3-0.1h0.1q0 0 0.1 0c0.1 0 0.2-0.1 0.3-0.1 0 0 0.1 0.7 0.1 3.5zm2.3 0.1c0 3.4 0 3.6 0.1 3.7l0.2 0.2h3 3l0.2-0.2c0.2-0.2 0.3-0.6 0.9-2.7 0.3-1 0.5-1.8 0.5-1.8 0 0 1.2 0.2 1.9 0.4 1.2 0.3 1.5 0.7 1.5 1.8 0 0.4-0.3 3.3-0.3 3.3 0 0.1-3-0.5-3.3-0.6-0.1 0-0.2 0.1-0.3 0.3-0.5 0.7-0.7 0.7-4.2 0.7-2.5 0-2.8 0-3.1-0.1-0.5-0.1-0.9-0.4-1.1-0.8-0.1-0.3-0.1-0.4-0.1-3.9v-3.6l0.2-0.1c0.1 0 0.3 0 0.4-0.1q0.1 0 0.1 0c0.1 0 0.3-0.1 0.3-0.1 0.1 0 0.1 0.8 0.1 3.6zm-74.2 0.6h-4.8v-1.8c0-1.1 0-1.9 0-1.9 0-0.1 1.1-0.1 2.4-0.1h2.4zm47.4-1.9l0.1 1.9h-13.4v-3.8h6.7 6.6zm-22 12.7c0 0-1.4 2.3-1.7 2.6-0.3 0.5-0.7 0.8-1.1 0.9-0.3 0.1-2.1 0.1-24.7 0.2h-24.3v-3.8h25.9c14.3 0 25.9 0 25.9 0.1zm31.7-17.5c0 0 0.3 0 1 0h1v-0.2c0-0.5-0.2-1.7-0.3-1.9 0-0.1-0.2-0.2-0.3-0.3-0.1 0-0.9-0.2-1.1-0.2 0 0-0.1 0.6-0.2 1.3q0 0.3 0 0.5c-0.1 0.4-0.1 0.7-0.1 0.8zm5.5-1.5c-0.1 0.6-0.1 1.2-0.1 1.3v0.2h1q0.2 0 0.3 0c0.4 0.1 0.6 0.1 0.6 0 0.1-0.1 0.1-0.3 0.1-0.7q-0.1-0.2-0.1-0.4c-0.2-1.3-0.2-1.3-1.1-1.4h-0.6zm21.6 10.9c0-0.1 0.2-1.6 0.2-1.9 0-0.5-0.1-0.5-0.9-0.7-0.3-0.1-0.7-0.2-0.7-0.2 0 0-0.1 0.2-0.1 0.4-0.2 0.7-0.6 2-0.5 2 0 0.1 2 0.4 2 0.4z"/>
		</g>
	</g>
</svg>