<svg width="1370" height="329" viewBox="0 0 1370 329" fill="none" xmlns="http://www.w3.org/2000/svg">
<path d="M10.856 153C30.616 154.248 47.672 154.872 62.232 154.872C108.616 154.872 134.408 128.248 134.408 79.992C134.408 39.432 112.568 17.384 72.632 17.384L10.856 18.216L13.144 112.856L10.856 153ZM53.496 120.76L52.872 108.488L54.536 52.328C59.528 51.704 63.896 51.496 69.096 51.496C86.36 51.496 88.648 66.264 88.648 90.808C88.648 113.688 82.408 122.424 70.552 122.424C67.016 122.424 61.608 121.8 53.496 120.76ZM166.235 43.8C179.963 43.8 188.283 35.064 188.283 21.128C188.283 8.02399 181.003 0.535992 168.107 0.535992C154.379 0.535992 145.851 9.27199 145.851 23C145.851 36.312 153.131 43.8 166.235 43.8ZM145.851 153H188.283L186.619 109.32L188.491 54.2L146.267 57.112L147.723 113.48L145.851 153ZM204.322 165.272C204.322 183.16 220.13 193.976 249.25 193.976C270.05 193.976 286.066 187.528 294.386 176.296C298.546 170.68 300.626 164.232 300.626 156.744C300.626 141.56 290.642 133.864 278.994 131.16C272.962 129.912 266.098 128.872 257.57 128.456C250.706 127.832 246.13 127 243.634 126.376C240.93 125.96 239.474 124.504 239.474 122.424C239.474 122.008 239.266 121.384 239.474 120.552C242.802 120.76 246.546 120.968 250.082 120.968C279.826 120.968 298.338 107.24 298.338 85.4C298.338 82.28 297.714 79.16 296.674 76.248L297.09 75.416C301.874 75 306.034 74.792 309.57 74.168V48.792L306.658 46.296C296.258 50.872 286.066 54.2 276.082 56.488C269.01 53.992 261.314 52.536 252.786 52.536C223.042 52.536 204.738 65.848 204.738 88.312C204.738 101 210.978 110.568 222.002 115.768V117.016C216.594 120.552 210.978 124.712 206.194 129.704C206.194 140.312 210.77 147.384 220.13 151.544V152.792C214.514 156.12 209.314 160.488 204.322 165.272ZM240.93 86.232C240.93 79.368 243.426 77.496 252.162 77.496C259.234 77.496 262.146 79.784 262.146 86.856C262.146 93.928 258.818 97.048 251.122 97.048C243.634 97.048 240.93 94.344 240.93 86.232ZM237.186 162.36C237.186 160.072 237.81 157.784 239.266 155.912C241.346 155.912 243.634 156.12 245.714 156.328C256.738 157.576 265.682 158.2 265.682 164.232C265.682 170.264 262.354 171.72 252.994 171.72C242.386 171.72 237.186 168.808 237.186 162.36ZM339.907 43.8C353.635 43.8 361.955 35.064 361.955 21.128C361.955 8.02399 354.675 0.535992 341.779 0.535992C328.051 0.535992 319.523 9.27199 319.523 23C319.523 36.312 326.803 43.8 339.907 43.8ZM319.523 153H361.955L360.291 109.32L362.163 54.2L319.939 57.112L321.395 113.48L319.523 153ZM369.882 78.12L370.922 80.2H383.818L384.026 104.952L382.57 126.792C382.57 143.64 396.09 154.456 418.554 154.456C426.25 153.416 435.194 150.088 441.018 146.552L444.97 123.048L442.266 119.72C437.69 121.384 433.53 122.008 430.202 122.008C424.17 122.008 422.506 119.928 422.298 113.688L423.754 80.2H443.514L445.178 57.736L444.346 55.656H424.586L425.626 30.28L423.13 27.992L383.61 38.392L383.818 55.656H371.546L369.882 78.12ZM449.392 122.424C449.392 142.6 463.328 155.08 484.752 155.288C492.24 152.168 499.312 147.384 505.136 140.52H506.592C510.128 149.464 516.784 154.456 524.896 155.08C532.8 154.456 539.456 152.376 544.656 148.632L548.4 127L545.904 124.92C544.448 125.128 543.408 125.128 542.576 125.128C540.912 125.128 539.872 124.296 539.872 121.384C540.08 115.768 540.496 110.152 540.912 104.328C541.536 92.472 541.536 85.192 541.536 82.696C541.536 62.936 526.976 52.12 500.976 52.12C485.584 52.12 469.152 55.656 456.256 62.312L460.832 89.144L463.328 90.808C475.808 84.152 485.792 80.824 493.696 80.824C500.56 80.824 502.64 83.528 502.64 90.392L502.848 92.056L473.728 95.592C457.296 97.88 449.392 106.616 449.392 122.424ZM487.04 118.68C487.04 114.104 488.496 112.232 492.032 111.608L502.848 110.36V123.88C499.936 125.752 497.024 126.376 494.112 126.376C489.328 126.376 487.04 123.88 487.04 118.68ZM600.786 109.32L602.866 6.984L560.642 9.896L562.306 113.688L560.018 153H602.658L600.786 109.32ZM31.656 326H75.336L73.672 282.32L74.712 224.912H76.168L104.04 226.16L106.536 194.336L104.04 191.216H2.744L0.456 223.04L2.952 226.16L31.032 224.912H32.904L33.944 286.48L31.656 326ZM115.165 326H157.805L155.933 282.32V272.544C161.549 268.176 168.621 265.472 174.445 265.472C177.773 265.472 180.269 266.304 182.141 267.136L186.093 265.888V227.824C184.845 227.616 183.389 227.408 181.517 227.408C171.741 227.408 163.837 233.232 157.805 245.088H155.933V227.2L115.581 230.112L117.037 286.48L115.165 326ZM189.188 295.424C189.188 315.6 203.124 328.08 224.548 328.288C232.036 325.168 239.108 320.384 244.932 313.52H246.388C249.924 322.464 256.58 327.456 264.692 328.08C272.596 327.456 279.252 325.376 284.452 321.632L288.196 300L285.7 297.92C284.244 298.128 283.204 298.128 282.372 298.128C280.708 298.128 279.668 297.296 279.668 294.384C279.876 288.768 280.292 283.152 280.708 277.328C281.332 265.472 281.332 258.192 281.332 255.696C281.332 235.936 266.772 225.12 240.772 225.12C225.38 225.12 208.948 228.656 196.052 235.312L200.628 262.144L203.124 263.808C215.604 257.152 225.588 253.824 233.492 253.824C240.356 253.824 242.436 256.528 242.436 263.392L242.644 265.056L213.524 268.592C197.092 270.88 189.188 279.616 189.188 295.424ZM226.836 291.68C226.836 287.104 228.292 285.232 231.828 284.608L242.644 283.36V296.88C239.732 298.752 236.82 299.376 233.908 299.376C229.124 299.376 226.836 296.88 226.836 291.68ZM299.399 326H342.039L340.167 282.32V261.728C343.079 260.272 345.991 259.648 348.695 259.648C354.727 259.648 357.639 263.6 357.847 271.712L355.559 326H397.991L396.535 282.32L397.367 253.824C397.991 236.144 386.551 226.368 365.335 226.368C356.599 229.696 348.903 234.48 341.623 241.552H340.167V227.2L299.815 230.112L301.271 286.48L299.399 326ZM441.858 328.496C467.442 328.496 486.994 316.432 486.994 293.552C486.994 281.28 480.338 273.584 472.85 269.424C463.906 264.432 444.354 260.272 444.354 254.448C444.354 252.368 446.018 251.536 448.93 251.536C454.546 251.536 465.57 255.28 475.138 261.52L479.922 259.856L485.33 230.528C474.722 226.784 464.322 225.328 453.922 225.328C428.754 225.328 409.202 238.224 409.202 260.48C409.202 272.96 415.858 280.864 423.762 285.024C432.498 289.808 451.842 296.048 451.842 299.792C451.842 302.08 450.386 302.912 447.058 302.912C438.946 302.912 425.01 297.712 414.818 289.392L411.282 292.096L406.29 323.296C418.354 326.832 430.21 328.496 441.858 328.496ZM493.673 251.12L494.713 253.2H509.689L510.105 286.688L508.025 326H550.665L548.793 282.32L549.417 253.2H571.049L572.921 230.736L571.881 228.656H550.041L550.249 216.8C550.457 210.768 552.953 208.896 558.153 208.896C562.729 208.896 569.177 210.768 577.913 214.096L580.825 212.224L583.113 181.44C576.249 180.192 569.385 179.568 562.729 179.568C528.617 179.568 509.273 195.792 509.273 224.496V228.656H495.545L493.673 251.12ZM620.602 225.12C586.698 225.12 569.434 243.424 569.434 279.616C569.434 311.856 585.45 328.496 616.858 328.496C650.554 328.496 668.026 310.192 668.026 274.416C668.026 241.76 652.01 225.12 620.602 225.12ZM609.162 272.128C609.162 256.944 610.202 253.616 617.482 253.616C626.426 253.616 628.089 258.816 628.089 282.32C628.089 297.92 627.05 301.04 619.978 301.04C611.034 301.04 609.162 295.632 609.162 272.128ZM678.024 326H720.664L718.792 282.32V272.544C724.408 268.176 731.48 265.472 737.304 265.472C740.632 265.472 743.128 266.304 745 267.136L748.952 265.888V227.824C747.704 227.616 746.248 227.408 744.376 227.408C734.6 227.408 726.696 233.232 720.664 245.088H718.792V227.2L678.44 230.112L679.896 286.48L678.024 326ZM757.04 326H799.056L797.392 282.112V261.52C800.512 260.064 803.424 259.44 806.128 259.44C812.368 259.44 815.28 263.392 815.488 271.504L813.2 326H855.216L853.552 282.112L853.968 266.928C853.968 265.056 854.176 263.184 854.176 261.312C857.296 259.856 860 259.44 862.704 259.44C868.736 259.44 871.648 263.392 871.648 271.504L869.568 326H911.584L910.128 282.112L911.168 253.824C911.376 236.144 900.144 226.368 879.136 226.368C869.152 229.696 860.624 234.896 853.344 241.552H852.512C848.56 231.568 837.952 226.368 822.56 226.368C813.824 229.488 805.92 234.48 798.848 241.552H797.392V227.2L757.456 230.112L758.912 286.48L757.04 326ZM921.657 295.424C921.657 315.6 935.593 328.08 957.017 328.288C964.505 325.168 971.577 320.384 977.401 313.52H978.857C982.393 322.464 989.049 327.456 997.161 328.08C1005.07 327.456 1011.72 325.376 1016.92 321.632L1020.67 300L1018.17 297.92C1016.71 298.128 1015.67 298.128 1014.84 298.128C1013.18 298.128 1012.14 297.296 1012.14 294.384C1012.35 288.768 1012.76 283.152 1013.18 277.328C1013.8 265.472 1013.8 258.192 1013.8 255.696C1013.8 235.936 999.241 225.12 973.241 225.12C957.849 225.12 941.417 228.656 928.521 235.312L933.097 262.144L935.593 263.808C948.073 257.152 958.057 253.824 965.961 253.824C972.825 253.824 974.905 256.528 974.905 263.392L975.113 265.056L945.993 268.592C929.561 270.88 921.657 279.616 921.657 295.424ZM959.305 291.68C959.305 287.104 960.761 285.232 964.297 284.608L975.113 283.36V296.88C972.201 298.752 969.289 299.376 966.377 299.376C961.593 299.376 959.305 296.88 959.305 291.68ZM1023.13 251.12L1024.17 253.2H1037.07L1037.28 277.952L1035.82 299.792C1035.82 316.64 1049.34 327.456 1071.8 327.456C1079.5 326.416 1088.44 323.088 1094.27 319.552L1098.22 296.048L1095.52 292.72C1090.94 294.384 1086.78 295.008 1083.45 295.008C1077.42 295.008 1075.76 292.928 1075.55 286.688L1077 253.2H1096.76L1098.43 230.736L1097.6 228.656H1077.84L1078.88 203.28L1076.38 200.992L1036.86 211.392L1037.07 228.656H1024.8L1023.13 251.12ZM1128.64 216.8C1142.37 216.8 1150.69 208.064 1150.69 194.128C1150.69 181.024 1143.41 173.536 1130.51 173.536C1116.79 173.536 1108.26 182.272 1108.26 196C1108.26 209.312 1115.54 216.8 1128.64 216.8ZM1108.26 326H1150.69L1149.03 282.32L1150.9 227.2L1108.67 230.112L1110.13 286.48L1108.26 326ZM1213.32 225.12C1179.42 225.12 1162.15 243.424 1162.15 279.616C1162.15 311.856 1178.17 328.496 1209.58 328.496C1243.27 328.496 1260.74 310.192 1260.74 274.416C1260.74 241.76 1244.73 225.12 1213.32 225.12ZM1201.88 272.128C1201.88 256.944 1202.92 253.616 1210.2 253.616C1219.14 253.616 1220.81 258.816 1220.81 282.32C1220.81 297.92 1219.77 301.04 1212.7 301.04C1203.75 301.04 1201.88 295.632 1201.88 272.128ZM1270.74 326H1313.38L1311.51 282.32V261.728C1314.42 260.272 1317.33 259.648 1320.04 259.648C1326.07 259.648 1328.98 263.6 1329.19 271.712L1326.9 326H1369.33L1367.88 282.32L1368.71 253.824C1369.33 236.144 1357.89 226.368 1336.68 226.368C1327.94 229.696 1320.25 234.48 1312.97 241.552H1311.51V227.2L1271.16 230.112L1272.61 286.48L1270.74 326Z" fill="white" fill-opacity="0.21"/>
</svg>
