<svg width="201" height="20" viewBox="0 0 201 20" fill="none" xmlns="http://www.w3.org/2000/svg">
<path d="M16.8879 6.21515C16.8879 6.21515 16.8924 11.1019 16.8655 11.3534C16.8295 11.6768 16.7487 11.9912 16.6274 12.2876C16.3759 12.9029 15.765 13.2982 15.1003 13.2982H4.90468C4.23995 13.2982 3.64707 12.894 3.40453 12.2741L3.40004 12.2607C3.19792 11.7441 3.15301 11.2097 3.15301 10.6617V4.30178C3.15301 4.0817 3.15301 1.85393 3.15301 0.205566H0V10.4731C0 10.6347 0 10.792 0 10.9536C0.00449147 11.9507 0.417706 12.9119 1.15431 13.5901C1.54506 13.9494 2.01667 14.2189 2.52421 14.3761C2.79369 14.4615 3.07216 14.5064 3.35962 14.5288C3.41801 14.5333 3.4719 14.5378 3.53029 14.5378V14.5558H16.0929V14.5513C16.3265 14.5468 16.5555 14.5378 16.7891 14.5154C17.3236 14.466 17.8401 14.2998 18.2982 14.0303C19.2325 13.4734 19.8747 12.5032 20.0185 11.4252C20.0724 11.0031 20.0499 6.20616 20.0499 6.20616H16.8879V6.21515Z" fill="white"/>
<path d="M22.6638 5.32584C22.6638 5.75702 22.6638 14.5603 22.6638 14.5603H25.7719C25.7719 14.5603 25.8213 6.24209 25.8213 5.79295V3.61009C25.8213 3.18341 25.8213 1.53055 25.8213 0.205566H22.6683C22.6638 2.01563 22.6638 4.65212 22.6638 5.32584Z" fill="white"/>
<path d="M10.5954 4.54425C10.8065 4.54425 11.0176 4.54425 11.2152 4.54425C12.1135 4.54425 12.8366 3.94239 12.8366 3.2013C12.8366 2.46919 12.127 1.87183 11.2376 1.85835C11.0535 1.85835 10.8379 1.85386 10.6133 1.85386C9.70606 1.84488 8.96497 2.45122 8.96497 3.2013C8.96497 3.94239 9.69707 4.54425 10.5954 4.54425Z" fill="white"/>
<path d="M45.4221 4.58941H50.8164C51.4856 4.58941 52.0336 4.04594 52.0336 3.37222C52.0336 2.6985 51.4901 2.15503 50.8164 2.15503H45.4221C44.7529 2.15503 44.205 2.6985 44.205 3.37222C44.205 4.04594 44.7484 4.58941 45.4221 4.58941Z" fill="white"/>
<path d="M128.357 4.58941H133.751C134.421 4.58941 134.969 4.04594 134.969 3.37222C134.969 2.6985 134.425 2.15503 133.751 2.15503H128.357C127.688 2.15503 127.14 2.6985 127.14 3.37222C127.14 4.04594 127.688 4.58941 128.357 4.58941Z" fill="white"/>
<path d="M52.7479 6.2148C52.7479 6.2148 52.7569 11.1015 52.7254 11.353C52.6895 11.6764 52.6087 11.9908 52.4874 12.2873C52.2359 12.9026 51.625 13.2978 50.9603 13.2978L43.1092 13.2933C43.1092 13.1586 43.1092 10.0146 43.1092 9.85289C43.1047 8.85578 42.6915 7.8946 41.9549 7.21639C41.5641 6.85707 40.5581 6.24624 39.3274 6.24624C37.4634 6.24624 32.1366 6.24624 32.1366 6.24624V6.25073C31.903 6.25522 31.6739 6.2642 31.4404 6.28666C30.9059 6.33607 30.3894 6.50225 29.9312 6.77174C28.997 7.32868 28.3547 8.29884 28.211 9.37679C28.1571 9.79899 28.1526 11.1105 28.229 11.5507C28.4041 12.6151 29.0689 13.5628 30.0121 14.0838C30.9553 14.6049 33.3807 14.5554 33.3807 14.5554H39.9562V19.5949H43.1092V14.5554C43.1451 14.5554 51.9439 14.5554 51.9439 14.5554V14.551C52.1775 14.5465 52.4065 14.5375 52.6401 14.515C53.1746 14.4656 53.6911 14.2994 54.1492 14.0299C55.0835 13.473 55.7257 12.5028 55.8695 11.4249C55.9234 11.0027 55.9009 6.20581 55.9009 6.20581H52.7479V6.2148ZM39.9562 13.2933H33.2954C32.451 13.2933 31.6919 12.7409 31.4673 11.9279C31.4673 11.9234 31.4628 11.919 31.4628 11.9145C31.2742 11.2183 31.3281 9.71364 31.3595 9.46212C31.3955 9.13874 31.4763 8.82433 31.5976 8.5279C31.8491 7.91257 32.4599 7.51732 33.1247 7.51732H38.209C38.8738 7.51732 39.4666 7.92156 39.7092 8.54138L39.7137 8.55485C39.9158 9.07137 39.9607 9.60585 39.9607 10.1538V13.2933H39.9562Z" fill="white"/>
<path d="M189.684 2.89605C189.895 2.89605 190.106 2.89605 190.304 2.89605C191.202 2.89605 191.925 2.2942 191.925 1.5531C191.925 0.820996 191.215 0.223632 190.326 0.210157C190.142 0.210157 189.926 0.205665 189.702 0.205665C188.794 0.196682 188.053 0.80303 188.053 1.5531C188.058 2.2942 188.785 2.89605 189.684 2.89605Z" fill="white"/>
<path d="M112.013 6.77658C111.555 6.5026 111.034 6.33642 110.504 6.2915C110.274 6.26904 110.041 6.26006 109.807 6.25557V6.25108C109.807 6.25108 104.48 6.25108 102.617 6.25108C101.386 6.25108 100.38 6.85743 99.989 7.22124C99.2524 7.89945 98.8392 8.86062 98.8347 9.85773V10.4057H98.8302C98.8302 10.4057 98.8347 11.834 98.8347 12.7143C98.8347 13.0377 98.5742 13.2982 98.2508 13.2982H94.4061C93.7414 13.2982 93.1485 12.894 92.906 12.2741L92.9015 12.2607C92.6994 11.7441 92.6544 11.2097 92.6544 10.6617V4.30178C92.6544 4.0817 92.6544 1.85393 92.6544 0.205566H89.4969V10.4731C89.4969 10.6347 89.4969 10.792 89.4969 10.9536C89.5014 11.9508 89.9147 12.9119 90.6513 13.5901C91.042 13.9495 91.5136 14.2189 92.0211 14.3761C92.2906 14.4615 92.5736 14.5064 92.8566 14.5288C92.915 14.5333 92.9689 14.5378 93.0272 14.5378V14.5558H98.0352V14.5513C98.2688 14.5468 98.4978 14.5199 98.7314 14.5154C99.2255 14.5064 99.5623 14.2279 99.8049 13.8282C100.308 14.2773 100.964 14.5558 101.687 14.5558H101.997H108.572C108.572 14.5558 110.998 14.6052 111.941 14.0842C112.884 13.5632 113.549 12.611 113.724 11.551C113.796 11.1064 113.796 9.79934 113.742 9.37714C113.594 8.30368 112.947 7.32903 112.013 6.77658ZM110.481 11.9103C110.257 12.7278 109.511 13.2937 108.662 13.2937H103.933C102.859 13.2937 101.988 12.4224 101.988 11.3489V10.1452C101.988 9.59722 102.028 9.06274 102.235 8.54622L102.239 8.53274C102.482 7.91741 103.079 7.50869 103.739 7.50869H108.819C109.471 7.50869 110.081 7.88597 110.333 8.48783C110.459 8.79325 110.544 9.11664 110.584 9.4535C110.616 9.70951 110.674 11.2142 110.481 11.9103Z" fill="white"/>
<path d="M168.695 6.77658C168.237 6.5026 167.716 6.33642 167.186 6.2915C166.957 6.26904 166.723 6.26006 166.49 6.25557V6.25108C166.49 6.25108 161.163 6.25108 159.299 6.25108C158.068 6.25108 157.062 6.85743 156.671 7.22124C155.935 7.89945 155.521 8.86062 155.517 9.85773V10.4057H155.512C155.512 10.4057 155.517 11.834 155.517 12.7143C155.517 13.0377 155.256 13.2982 154.933 13.2982H151.088C150.424 13.2982 149.831 12.894 149.588 12.2741L149.584 12.2607C149.382 11.7441 149.337 11.2097 149.337 10.6617V4.30178C149.337 4.0817 149.337 1.85393 149.337 0.205566H146.184V10.4731C146.184 10.6347 146.184 10.792 146.184 10.9536C146.188 11.9508 146.601 12.9119 147.338 13.5901C147.729 13.9495 148.2 14.2189 148.708 14.3761C148.977 14.4615 149.26 14.5064 149.543 14.5288C149.602 14.5333 149.656 14.5378 149.714 14.5378V14.5558H154.722V14.5513C154.956 14.5468 155.185 14.5199 155.418 14.5154C155.912 14.5064 156.249 14.2279 156.492 13.8282C156.995 14.2773 157.65 14.5558 158.374 14.5558H158.683H165.259C165.259 14.5558 167.684 14.6052 168.628 14.0842C169.571 13.5632 170.236 12.611 170.411 11.551C170.483 11.1064 170.483 9.79934 170.429 9.37714C170.271 8.30368 169.625 7.32903 168.695 6.77658ZM167.163 11.9103C166.939 12.7278 166.193 13.2937 165.344 13.2937H160.615C159.541 13.2937 158.67 12.4224 158.67 11.3489V10.1452C158.67 9.59722 158.71 9.06274 158.917 8.54622L158.922 8.53274C159.164 7.91741 159.761 7.50869 160.422 7.50869H165.502C166.153 7.50869 166.764 7.88597 167.015 8.48783C167.141 8.79325 167.226 9.11664 167.267 9.4535C167.294 9.70951 167.352 11.2142 167.163 11.9103Z" fill="white"/>
<path d="M141.814 6.21484C141.814 6.21484 141.818 11.1016 141.791 11.3531C141.755 11.6765 141.674 11.9909 141.553 12.2873C141.302 12.9026 140.691 13.2979 140.026 13.2979H137.879H137.008H136.815L123.408 13.3024C122.743 13.3024 122.132 12.9071 121.88 12.2918C121.759 11.9954 121.678 11.681 121.642 11.3576C121.615 11.1016 121.62 6.21933 121.62 6.21933H118.467C118.467 6.21933 118.44 11.0162 118.498 11.4384C118.642 12.5164 119.284 13.4865 120.219 14.0435C120.677 14.3175 121.198 14.4836 121.728 14.5285C121.957 14.551 122.19 14.56 122.424 14.5645V14.569C122.424 14.569 134.052 14.569 137.241 14.569C138.89 14.569 141.014 14.569 141.014 14.569V14.5645C141.248 14.56 141.477 14.551 141.71 14.5285C142.245 14.4791 142.761 14.313 143.219 14.0435C144.154 13.4865 144.796 12.5164 144.94 11.4384C144.993 11.0162 144.971 6.21933 144.971 6.21933H141.814V6.21484Z" fill="white"/>
<path d="M84.4708 0.205566C84.4618 0.205566 84.4528 0.21455 84.4528 0.223533V10.6617C84.4528 11.2097 84.4124 11.7441 84.2058 12.2607C83.9588 12.885 83.3569 13.2937 82.6877 13.2937H80.1365C80.132 13.2937 80.1321 13.2937 80.1276 13.2937C79.7503 13.2937 79.391 13.1095 79.1215 12.8445L73.3499 7.18081C72.6448 6.57895 71.7465 6.24659 70.8167 6.24659H70.5967H70.4979C68.3599 6.24659 67.3044 8.84715 68.8405 10.3383L77.0195 18.2747C77.0329 18.2882 77.024 18.3062 77.006 18.3062L66.0109 18.2972C65.3461 18.2972 64.7533 17.893 64.5107 17.2776L64.5062 17.2642C64.3041 16.7476 64.2592 16.2132 64.2592 15.6652V6.31396C64.2592 6.30498 64.2502 6.296 64.2412 6.296H61.1242C61.1152 6.296 61.1062 6.30498 61.1062 6.31396C61.1062 6.77658 61.1062 15.7999 61.1062 15.9571C61.1107 16.9542 61.5239 17.9154 62.2605 18.5936C62.6513 18.9529 63.1229 19.2224 63.6304 19.3796C63.8999 19.465 64.1784 19.5099 64.4658 19.5323C64.5242 19.5368 64.5781 19.5413 64.6365 19.5413V19.5593L76.5164 19.5683C78.6409 19.5683 79.6829 16.9812 78.1558 15.508L70.0667 7.9219C70.0038 7.85902 69.914 7.74224 70.0936 7.74224H70.7584C71.0817 7.74224 71.3917 7.86352 71.6252 8.0836L77.1362 13.2308C78.03 14.1022 78.6454 14.4705 79.5392 14.5154C79.7682 14.5288 80.0018 14.5468 80.2354 14.5513V14.5558H84.089V14.5378C84.1474 14.5333 84.2013 14.5333 84.2597 14.5288C84.5427 14.5109 84.8211 14.4615 85.0951 14.3761C85.6027 14.2189 86.0743 13.9494 86.465 13.5901C87.2016 12.9119 87.6148 11.9507 87.6193 10.9536C87.6193 10.792 87.6193 10.6347 87.6193 10.4731V0.223533C87.6193 0.21455 87.6103 0.205566 87.6014 0.205566H84.4708Z" fill="white"/>
<path d="M200.279 10.5181L199.026 9.30988L194.449 4.90375C194.144 4.61181 193.658 4.60732 193.353 4.90375L189.45 8.65413L190.038 9.32335L192.558 6.90695L193.901 8.20498L199.187 13.3073H193.914V13.3028H181.118H180.732C180.072 13.3028 179.474 12.8986 179.232 12.2832L179.227 12.2698C179.052 11.8296 178.998 11.3715 178.989 10.9088C178.994 10.6528 178.985 10.4013 178.985 10.1498V7.74235C178.985 7.67049 178.985 7.64355 178.985 7.64804V7.4594C178.985 7.39203 178.985 7.35609 178.98 7.34261C178.98 7.00575 178.98 6.63297 178.98 6.22424H175.827H175.823C175.823 9.67369 175.823 10.846 175.823 10.9672C175.823 10.9807 175.823 10.9897 175.823 11.0032C175.823 11.1244 175.814 11.2457 175.805 11.367C175.769 11.6904 175.688 12.0048 175.567 12.3012C175.315 12.9165 174.704 13.3118 174.04 13.3118H171.035V14.5739H175.023V14.5694C175.257 14.5649 175.486 14.5559 175.72 14.5335C176.254 14.484 176.771 14.3179 177.229 14.0484C177.287 14.0124 177.341 13.972 177.399 13.9316C177.691 14.1292 178.006 14.2864 178.343 14.3897C178.612 14.4751 178.895 14.52 179.178 14.5424C179.236 14.5469 179.29 14.5514 179.349 14.5514V14.5694H181.114H183.836H198.644C200.759 14.5604 201.797 11.9868 200.279 10.5181Z" fill="white"/>
</svg>
