<svg width="23" height="23" viewBox="0 0 23 23" fill="none" xmlns="http://www.w3.org/2000/svg">
<path d="M12.3298 0.179443C11.8553 0.179443 11.3813 0.179443 10.9068 0.179443C10.8498 0.191717 10.7932 0.211003 10.7358 0.215387C8.96357 0.345571 7.30408 0.846147 5.7925 1.76182C2.85443 3.54189 1.04437 6.10175 0.410421 9.44886C0.333349 9.85519 0.293253 10.2685 0.235785 10.6788C0.235785 11.1456 0.235785 11.612 0.235785 12.0789C0.248259 12.1354 0.268307 12.1911 0.27276 12.248C0.40641 13.9694 0.928982 15.5675 1.80884 17.0605C4.07777 20.9095 8.66286 23.1126 13.1388 22.4796C16.1798 22.0496 18.675 20.6522 20.5733 18.2773C22.4533 15.9248 23.2298 13.2295 22.9416 10.2558C22.7104 7.8713 21.769 5.76906 20.1519 3.97628C18.385 2.01737 16.186 0.798807 13.558 0.34864C13.1508 0.278506 12.7392 0.235112 12.3298 0.179443ZM18.189 11.385C18.148 12.4488 18.1462 13.5223 18.0562 14.5887C17.9181 16.2185 16.762 17.4405 15.1235 17.6698C14.2993 17.7851 13.4555 17.8 12.6202 17.7995C11.2062 17.7995 9.78775 17.8057 8.37863 17.7079C7.07153 17.6172 6.07718 16.9579 5.50204 15.7648C5.25122 15.2441 5.13896 14.6843 5.13004 14.1123C5.10688 12.6035 5.09352 11.0944 5.09262 9.58562C5.09218 9.11266 5.12559 8.63838 5.17459 8.16761C5.34433 6.53395 6.46788 5.32284 8.114 5.08833C8.9306 4.97217 9.76725 4.95858 10.595 4.95858C12.0166 4.95902 13.4422 4.95201 14.8589 5.04756C16.6262 5.16679 17.911 6.4511 18.058 8.18822C18.148 9.24679 18.1484 10.3133 18.189 11.385Z" fill="white"/>
<path d="M17 11.3735C16.9719 10.4017 16.9684 9.43166 16.9091 8.4647C16.8258 7.10543 15.9638 6.25287 14.5827 6.17573C12.5998 6.06527 10.6142 6.06439 8.63129 6.17748C7.28098 6.25419 6.37706 7.1142 6.34142 8.44848C6.28929 10.392 6.28706 12.3391 6.34008 14.2827C6.3775 15.656 7.27474 16.5388 8.67138 16.576C10.6392 16.6286 12.6105 16.6278 14.5783 16.5756C15.9629 16.5388 16.8263 15.6555 16.9091 14.2989C16.9679 13.3249 16.9715 12.3474 17 11.3735ZM11.6237 8.07984C13.4765 8.08247 14.9685 9.54738 14.9752 11.3713C14.9819 13.1987 13.4765 14.6816 11.6179 14.6794C9.76597 14.6772 8.27355 13.2114 8.26687 11.3875C8.26018 9.55922 9.76419 8.07721 11.6237 8.07984ZM7.35047 7.94221C7.35226 7.52009 7.69663 7.18082 8.1252 7.17776C8.5658 7.17513 8.91418 7.51659 8.9124 7.95054C8.91061 8.37484 8.56936 8.71148 8.13901 8.71411C7.69841 8.71674 7.34869 8.3744 7.35047 7.94221Z" fill="white"/>
<path d="M11.6279 13.5221C12.8245 13.519 13.7997 12.5556 13.7988 11.3773C13.7979 10.1903 12.8107 9.22775 11.6025 9.23564C10.4059 9.24353 9.43738 10.2105 9.44273 11.3909C9.44852 12.5692 10.4291 13.5252 11.6279 13.5221Z" fill="white"/>
</svg>
