<svg width="24" height="23" viewBox="0 0 24 23" fill="none" xmlns="http://www.w3.org/2000/svg">
<path d="M11.1585 0.179443C11.633 0.179443 12.1071 0.179443 12.5816 0.179443C12.6386 0.191721 12.6952 0.211014 12.7527 0.215399C14.5256 0.345627 16.1849 0.846369 17.6968 1.76279C20.6353 3.54345 22.4456 6.10416 23.0797 9.45238C23.1568 9.85885 23.1969 10.2723 23.2543 10.6828C23.2543 11.1497 23.2543 11.6163 23.2543 12.0833C23.2214 12.3498 23.1937 12.6178 23.1541 12.8835C22.7045 15.8919 21.2809 18.3596 18.8437 20.2258C16.3427 22.1406 13.4866 22.8839 10.3502 22.4818C7.66832 22.138 5.38255 20.9725 3.54992 19.0134C1.12825 16.4242 0.151115 13.354 0.593566 9.86894C0.877394 7.6327 1.81309 5.66261 3.33516 3.97754C5.10362 2.0193 7.30162 0.799452 9.93048 0.348696C10.3373 0.278539 10.749 0.23513 11.1585 0.179443ZM12.8668 17.1082C12.8668 17.0025 12.8668 16.9166 12.8668 16.8302C12.8668 15.7147 12.8654 14.5992 12.8677 13.4838C12.8686 13.0755 12.8672 12.6669 12.8855 12.2595C12.9078 11.7654 13.1613 11.3865 13.5632 11.1111C14.363 10.5635 15.3958 10.9125 15.6601 11.8311C15.7474 12.1346 15.7768 12.4625 15.7795 12.78C15.7919 14.1432 15.7848 15.5069 15.7848 16.8701C15.7848 16.9473 15.7848 17.0245 15.7848 17.1021C16.7227 17.1021 17.6308 17.1021 18.5563 17.1021C18.5563 17.024 18.5563 16.9596 18.5563 16.8951C18.5563 15.4148 18.5594 13.9349 18.5531 12.4546C18.5518 12.142 18.5309 11.8276 18.4921 11.5176C18.2911 9.91936 17.3185 8.91525 15.7527 8.7381C14.6197 8.61007 13.6603 8.94726 12.984 9.90314C12.9612 9.93515 12.9309 9.96189 12.8628 10.036C12.8628 9.62953 12.8628 9.27699 12.8628 8.91832C11.9266 8.91832 11.0195 8.91832 10.1092 8.91832C10.1092 11.6562 10.1092 14.3787 10.1092 17.1087C11.0261 17.1082 11.928 17.1082 12.8668 17.1082ZM8.55456 17.1047C8.55901 17.0464 8.56392 17.0104 8.56392 16.9749C8.56436 14.3497 8.56347 11.7241 8.56748 9.09897C8.56793 8.94682 8.52203 8.89858 8.36608 8.8999C7.56584 8.90648 6.7656 8.90253 5.96491 8.90385C5.90877 8.90385 5.85218 8.917 5.79782 8.92402C5.79782 11.6592 5.79782 14.3765 5.79782 17.1047C6.71881 17.1047 7.62733 17.1047 8.55456 17.1047ZM5.62939 6.3712C5.63118 7.20211 6.27859 7.79318 7.18042 7.78792C8.08894 7.78266 8.74883 7.18764 8.74615 6.37602C8.74393 5.54642 8.09785 4.95096 7.19824 4.94965C6.27413 4.94877 5.62761 5.53458 5.62939 6.3712Z" fill="white"/>
</svg>
