<svg width="129" height="13" viewBox="0 0 129 13" fill="none" xmlns="http://www.w3.org/2000/svg">
<path d="M10.8406 4.41316C10.8406 4.41316 10.8435 7.5493 10.8262 7.71072C10.8031 7.91826 10.7512 8.12003 10.6734 8.31028C10.512 8.70518 10.12 8.95883 9.69335 8.95883H3.15011C2.72351 8.95883 2.34302 8.69941 2.18736 8.30163L2.18448 8.29298C2.05477 7.9615 2.02595 7.61848 2.02595 7.26681V3.18522C2.02595 3.04398 2.02595 1.61427 2.02595 0.556396H0.00244141V7.14575C0.00244141 7.24952 0.00244141 7.35041 0.00244141 7.45418C0.00532389 8.09409 0.270512 8.71094 0.743239 9.14619C0.994015 9.37679 1.29668 9.54974 1.6224 9.65063C1.79535 9.7054 1.97406 9.73422 2.15854 9.74863C2.19601 9.75151 2.2306 9.7544 2.26807 9.7544V9.76593H10.3304V9.76304C10.4803 9.76016 10.6273 9.7544 10.7772 9.73998C11.1202 9.70828 11.4517 9.60162 11.7457 9.42868C12.3452 9.07125 12.7574 8.44864 12.8497 7.75684C12.8843 7.48589 12.8698 4.40739 12.8698 4.40739H10.8406V4.41316Z" fill="white"/>
<path d="M14.5474 3.84243C14.5474 4.11915 14.5474 9.76881 14.5474 9.76881H16.542C16.542 9.76881 16.5737 4.43045 16.5737 4.1422V2.74132C16.5737 2.46748 16.5737 1.40673 16.5737 0.556396H14.5502C14.5474 1.71804 14.5474 3.41005 14.5474 3.84243Z" fill="white"/>
<path d="M6.8022 3.34081C6.93768 3.34081 7.07315 3.34081 7.19998 3.34081C7.77648 3.34081 8.24056 2.95455 8.24056 2.47894C8.24056 2.0091 7.78513 1.62573 7.21439 1.61708C7.09621 1.61708 6.95785 1.6142 6.81373 1.6142C6.23147 1.60843 5.75586 1.99757 5.75586 2.47894C5.75586 2.95455 6.2257 3.34081 6.8022 3.34081Z" fill="white"/>
<path d="M29.1532 3.37005H32.6151C33.0446 3.37005 33.3962 3.02126 33.3962 2.58889C33.3962 2.15652 33.0475 1.80774 32.6151 1.80774H29.1532C28.7237 1.80774 28.3721 2.15652 28.3721 2.58889C28.3721 3.02126 28.7209 3.37005 29.1532 3.37005Z" fill="white"/>
<path d="M82.3778 3.37005H85.8397C86.2692 3.37005 86.6209 3.02126 86.6209 2.58889C86.6209 2.15652 86.2721 1.80774 85.8397 1.80774H82.3778C81.9483 1.80774 81.5967 2.15652 81.5967 2.58889C81.5967 3.02126 81.9483 3.37005 82.3778 3.37005Z" fill="white"/>
<path d="M33.8542 4.41299C33.8542 4.41299 33.86 7.54913 33.8398 7.71055C33.8167 7.91809 33.7649 8.11987 33.687 8.31011C33.5256 8.70501 33.1336 8.95867 32.707 8.95867L27.6684 8.95578C27.6684 8.86931 27.6684 6.85157 27.6684 6.74781C27.6655 6.10789 27.4003 5.49104 26.9276 5.05579C26.6768 4.82519 26.0312 4.43317 25.2414 4.43317C24.0451 4.43317 20.6265 4.43317 20.6265 4.43317V4.43605C20.4766 4.43894 20.3296 4.4447 20.1797 4.45911C19.8367 4.49082 19.5052 4.59747 19.2112 4.77042C18.6116 5.12785 18.1994 5.75047 18.1072 6.44226C18.0726 6.71322 18.0697 7.5549 18.1187 7.83738C18.2312 8.52053 18.6578 9.12874 19.2631 9.4631C19.8684 9.79747 21.4249 9.76576 21.4249 9.76576H25.6449V12.9999H27.6684V9.76576C27.6915 9.76576 33.3383 9.76576 33.3383 9.76576V9.76288C33.4881 9.76 33.6351 9.75423 33.785 9.73982C34.128 9.70811 34.4595 9.60146 34.7535 9.42851C35.3531 9.07108 35.7653 8.44847 35.8575 7.75667C35.8921 7.48572 35.8777 4.40723 35.8777 4.40723H33.8542V4.41299ZM25.6449 8.95578H21.3702C20.8283 8.95578 20.3411 8.60124 20.197 8.07951C20.197 8.07663 20.1941 8.07375 20.1941 8.07086C20.0731 7.62408 20.1077 6.65845 20.1278 6.49703C20.1509 6.28949 20.2028 6.08771 20.2806 5.89747C20.442 5.50257 20.834 5.24891 21.2606 5.24891H24.5236C24.9502 5.24891 25.3307 5.50834 25.4864 5.90612L25.4892 5.91477C25.619 6.24625 25.6478 6.58927 25.6478 6.94093V8.95578H25.6449Z" fill="white"/>
<path d="M121.735 2.28307C121.871 2.28307 122.006 2.28307 122.133 2.28307C122.71 2.28307 123.174 1.89681 123.174 1.4212C123.174 0.95136 122.718 0.56799 122.148 0.559343C122.029 0.559343 121.891 0.55646 121.747 0.55646C121.165 0.550695 120.689 0.93983 120.689 1.4212C120.692 1.89681 121.159 2.28307 121.735 2.28307Z" fill="white"/>
<path d="M71.8889 4.77347C71.5948 4.59764 71.2605 4.49098 70.9203 4.46216C70.7733 4.44775 70.6234 4.44198 70.4736 4.4391V4.43622C70.4736 4.43622 67.0549 4.43622 65.8587 4.43622C65.0689 4.43622 64.4232 4.82535 64.1724 5.05884C63.6997 5.49409 63.4345 6.11094 63.4316 6.75085V7.10251H63.4288C63.4288 7.10251 63.4316 8.01914 63.4316 8.58411C63.4316 8.79165 63.2645 8.95883 63.0569 8.95883H60.5895C60.1629 8.95883 59.7824 8.69941 59.6268 8.30163L59.6239 8.29298C59.4942 7.9615 59.4653 7.61848 59.4653 7.26681V3.18522C59.4653 3.04398 59.4653 1.61427 59.4653 0.556396H57.439V7.14575C57.439 7.24952 57.439 7.35041 57.439 7.45418C57.4418 8.09409 57.707 8.71094 58.1798 9.14619C58.4305 9.37679 58.7332 9.54974 59.0589 9.65063C59.2319 9.7054 59.4135 9.73422 59.5951 9.74863C59.6325 9.75151 59.6671 9.7544 59.7046 9.7544V9.76593H62.9186V9.76304C63.0685 9.76016 63.2155 9.74287 63.3653 9.73998C63.6824 9.73422 63.8986 9.55551 64.0543 9.29896C64.3771 9.58721 64.7979 9.76593 65.262 9.76593H65.4609H69.6809C69.6809 9.76593 71.2374 9.79764 71.8427 9.46327C72.4481 9.1289 72.8747 8.51781 72.9871 7.83755C73.0332 7.55218 73.0332 6.71338 72.9986 6.44243C72.9035 5.75351 72.4884 5.12801 71.8889 4.77347ZM70.9059 8.06815C70.7618 8.59276 70.2833 8.95595 69.7385 8.95595H66.7033C66.0144 8.95595 65.4551 8.39675 65.4551 7.70784V6.93533C65.4551 6.58367 65.4811 6.24065 65.6137 5.90917L65.6166 5.90052C65.7722 5.50562 66.1556 5.24331 66.5793 5.24331H69.8394C70.2574 5.24331 70.6494 5.48544 70.8108 5.87169C70.8915 6.0677 70.9463 6.27524 70.9722 6.49143C70.9924 6.65573 71.0299 7.62136 70.9059 8.06815Z" fill="white"/>
<path d="M108.265 4.77347C107.971 4.59764 107.637 4.49098 107.297 4.46216C107.15 4.44775 107 4.44198 106.85 4.4391V4.43622C106.85 4.43622 103.431 4.43622 102.235 4.43622C101.445 4.43622 100.8 4.82535 100.549 5.05884C100.076 5.49409 99.811 6.11094 99.8082 6.75085V7.10251H99.8053C99.8053 7.10251 99.8082 8.01914 99.8082 8.58411C99.8082 8.79165 99.641 8.95883 99.4334 8.95883H96.966C96.5394 8.95883 96.1589 8.69941 96.0033 8.30163L96.0004 8.29298C95.8707 7.9615 95.8419 7.61848 95.8419 7.26681V3.18522C95.8419 3.04398 95.8419 1.61427 95.8419 0.556396H93.8184V7.14575C93.8184 7.24952 93.8184 7.35041 93.8184 7.45418C93.8212 8.09409 94.0864 8.71094 94.5592 9.14619C94.8099 9.37679 95.1126 9.54974 95.4383 9.65063C95.6113 9.7054 95.7929 9.73422 95.9745 9.74863C96.0119 9.75151 96.0465 9.7544 96.084 9.7544V9.76593H99.298V9.76304C99.4478 9.76016 99.5949 9.74287 99.7447 9.73998C100.062 9.73422 100.278 9.55551 100.434 9.29896C100.756 9.58721 101.177 9.76593 101.641 9.76593H101.84H106.06C106.06 9.76593 107.617 9.79764 108.222 9.46327C108.827 9.1289 109.254 8.51781 109.366 7.83755C109.413 7.55218 109.413 6.71338 109.378 6.44243C109.277 5.75351 108.862 5.12801 108.265 4.77347ZM107.282 8.06815C107.138 8.59276 106.66 8.95595 106.115 8.95595H103.08C102.391 8.95595 101.832 8.39675 101.832 7.70784V6.93533C101.832 6.58367 101.858 6.24065 101.99 5.90917L101.993 5.90052C102.149 5.50562 102.532 5.24331 102.956 5.24331H106.216C106.634 5.24331 107.026 5.48544 107.187 5.87169C107.268 6.0677 107.323 6.27524 107.349 6.49143C107.366 6.65573 107.403 7.62136 107.282 8.06815Z" fill="white"/>
<path d="M91.014 4.41309C91.014 4.41309 91.0169 7.54923 90.9996 7.71065C90.9765 7.91819 90.9246 8.11996 90.8468 8.3102C90.6854 8.7051 90.2934 8.95876 89.8668 8.95876H88.4889H87.9297H87.8058L79.2016 8.96164C78.775 8.96164 78.3829 8.70798 78.2215 8.31308C78.1437 8.12284 78.0918 7.92107 78.0688 7.71353C78.0515 7.54923 78.0543 4.41597 78.0543 4.41597H76.0308C76.0308 4.41597 76.0135 7.49446 76.051 7.76541C76.1433 8.45721 76.5554 9.07983 77.155 9.43726C77.449 9.61309 77.7834 9.71974 78.1235 9.74856C78.2705 9.76297 78.4204 9.76874 78.5703 9.77162V9.77451C78.5703 9.77451 86.0331 9.77451 88.0796 9.77451C89.1375 9.77451 90.5009 9.77451 90.5009 9.77451V9.77162C90.6508 9.76874 90.7978 9.76297 90.9477 9.74856C91.2907 9.71685 91.6222 9.6102 91.9162 9.43726C92.5158 9.07983 92.928 8.45721 93.0202 7.76541C93.0548 7.49446 93.0404 4.41597 93.0404 4.41597H91.014V4.41309Z" fill="white"/>
<path d="M54.2134 0.556396C54.2077 0.556396 54.2019 0.562162 54.2019 0.567927V7.26681C54.2019 7.61848 54.176 7.96149 54.0434 8.29298C53.8848 8.69365 53.4986 8.95595 53.0691 8.95595H51.4318C51.4289 8.95595 51.4289 8.95595 51.4261 8.95595C51.1839 8.95595 50.9533 8.83777 50.7804 8.6677L47.0764 5.03289C46.6238 4.64664 46.0473 4.43334 45.4507 4.43334H45.3094H45.246C43.874 4.43334 43.1966 6.10229 44.1824 7.05928L49.4314 12.1526C49.44 12.1613 49.4343 12.1728 49.4227 12.1728L42.3664 12.167C41.9398 12.167 41.5593 11.9076 41.4037 11.5127L41.4008 11.5041C41.2711 11.1726 41.2423 10.8296 41.2423 10.4779V4.47657C41.2423 4.47081 41.2365 4.46504 41.2307 4.46504H39.2303C39.2245 4.46504 39.2188 4.47081 39.2188 4.47657C39.2188 4.77347 39.2188 10.5644 39.2188 10.6653C39.2216 11.3052 39.4868 11.922 39.9596 12.3573C40.2103 12.5879 40.513 12.7608 40.8387 12.8617C41.0117 12.9165 41.1904 12.9453 41.3748 12.9597C41.4123 12.9626 41.4469 12.9655 41.4844 12.9655V12.977L49.1085 12.9828C50.472 12.9828 51.1407 11.3225 50.1607 10.377L44.9693 5.5085C44.9289 5.46815 44.8713 5.3932 44.9866 5.3932H45.4132C45.6207 5.3932 45.8196 5.47103 45.9695 5.61227L49.5063 8.91559C50.0799 9.4748 50.4748 9.71116 51.0485 9.73998C51.1955 9.74863 51.3454 9.76016 51.4952 9.76304V9.76593H53.9684V9.7544C54.0059 9.75151 54.0405 9.75151 54.0779 9.74863C54.2595 9.7371 54.4383 9.70539 54.6141 9.65063C54.9398 9.54974 55.2425 9.37679 55.4932 9.14619C55.966 8.71094 56.2312 8.09409 56.234 7.45418C56.234 7.35041 56.234 7.24952 56.234 7.14575V0.567927C56.234 0.562162 56.2283 0.556396 56.2225 0.556396H54.2134Z" fill="white"/>
<path d="M128.535 7.17476L127.731 6.39937L124.794 3.57166C124.598 3.3843 124.287 3.38141 124.091 3.57166L121.586 5.97853L121.963 6.40802L123.58 4.85725L124.442 5.69028L127.835 8.96478H124.451V8.9619H116.239H115.991C115.567 8.9619 115.184 8.70247 115.028 8.30757L115.025 8.29893C114.913 8.01644 114.878 7.72243 114.872 7.42554C114.875 7.26123 114.87 7.09981 114.87 6.9384V5.39338C114.87 5.34726 114.87 5.32997 114.87 5.33285V5.21179C114.87 5.16855 114.87 5.14549 114.867 5.13684C114.867 4.92066 114.867 4.68141 114.867 4.41911H112.843H112.84C112.84 6.63285 112.84 7.38518 112.84 7.46301C112.84 7.47166 112.84 7.47742 112.84 7.48607C112.84 7.5639 112.835 7.64172 112.829 7.71955C112.806 7.92709 112.754 8.12886 112.676 8.31911C112.515 8.71401 112.123 8.96767 111.696 8.96767H109.768V9.77764H112.327V9.77476C112.477 9.77188 112.624 9.76611 112.774 9.7517C113.117 9.71999 113.449 9.61334 113.743 9.44039C113.78 9.41733 113.815 9.39139 113.852 9.36545C114.039 9.49228 114.241 9.59316 114.457 9.65946C114.63 9.71423 114.812 9.74305 114.994 9.75747C115.031 9.76035 115.066 9.76323 115.103 9.76323V9.77476H116.236H117.983H127.486C128.844 9.769 129.51 8.11733 128.535 7.17476Z" fill="white"/>
</svg>
