<svg width="52" height="44" viewBox="0 0 52 44" fill="none" xmlns="http://www.w3.org/2000/svg">
<path d="M51.9355 15.8859L41.3922 37.4218C41.4137 37.183 41.4352 36.9305 41.4352 36.678C41.4352 34.8493 40.7471 33.1706 39.6003 31.8809C38.604 30.7481 37.2565 29.902 35.7227 29.4926C35.0489 29.3083 34.3322 29.206 33.5868 29.206C33.1997 29.206 30.6123 29.3766 28.1825 30.0658C14.3063 34.0168 3.88477 41.0726 0 44L8.43612 26.7767L47.9575 15.1352L48.574 14.9578C46.7391 7.63586 39.8296 2.18362 31.5942 2.18362C24.7636 2.18362 18.8576 5.92308 15.9691 11.3753C18.6784 4.72208 25.466 0 33.4148 0C43.0263 0 50.932 6.89206 52 15.763L51.9355 15.8859Z" fill="white"/>
</svg>
