<svg width="920" height="141" viewBox="0 0 920 141" fill="none" xmlns="http://www.w3.org/2000/svg">
<g opacity="0.09" clip-path="url(#clip0_1341_3711)">
<path d="M241.49 118.28V64.1939C241.49 52.5838 244.17 46.4159 248.672 44.1094V41.9844C223.3 44.3686 202.664 65.4379 202.664 91.2497C202.664 117.062 223.3 138.105 248.672 140.515V138.39C244.17 136.058 241.49 129.89 241.49 118.28Z" fill="white"/>
<path d="M154.237 121.182V75.7004C154.237 63.8311 152.754 54.9162 143.698 47.6599C138.702 43.7725 132.3 41.9844 124.545 41.9844H108.203V44.1354C114.735 46.6751 117.285 52.8689 117.285 71.6058V121.156C116.895 130.952 114.709 136.705 109.166 138.338V140.463H169.955V138.338C155.538 138.364 154.237 134.917 154.237 121.182Z" fill="white"/>
<path d="M293.117 121.414V0H240.266V2.15098C253.901 2.15098 255.931 4.37971 255.931 18.711L255.905 140.488H308.783V138.363C294.418 138.363 293.117 134.994 293.117 121.414Z" fill="white"/>
<path d="M192.593 41.9844C175.678 48.9297 163.37 65.101 161.496 83.9415H163.656C165.998 79.4063 172.191 76.7889 183.797 76.7889H192.593V41.9844Z" fill="white"/>
<path d="M474.003 121.182V75.7004C474.003 63.8311 472.519 54.9162 463.463 47.6599C458.467 43.7725 452.066 41.9844 444.311 41.9844H427.969V44.1354C434.526 46.6751 437.051 52.8689 437.051 71.6058V121.156C436.66 130.952 434.474 136.705 428.932 138.338V140.463H489.72V138.338C475.278 138.364 474.003 134.917 474.003 121.182Z" fill="white"/>
<path d="M512.331 41.9844C495.417 48.9297 483.108 65.101 481.234 83.9415H483.394C485.736 79.4063 491.93 76.7889 503.51 76.7889H512.305V41.9844H512.331Z" fill="white"/>
<path d="M611.659 118.28V64.1939C611.659 52.5838 614.339 46.4159 618.841 44.1094V41.9844C593.469 44.3686 572.859 65.4379 572.859 91.2497C572.859 117.062 593.469 138.105 618.841 140.515V138.39C614.339 136.058 611.659 129.89 611.659 118.28Z" fill="white"/>
<path d="M671.878 91.2472C671.878 65.5132 651.346 44.4698 626.078 42.0078V44.1588C630.632 46.4912 633.26 52.6591 633.26 64.2174V118.303C633.26 129.835 630.632 136.003 626.078 138.336V140.487C651.372 137.999 671.878 116.981 671.878 91.2472Z" fill="white"/>
<path d="M38.7996 118.28V64.1939C38.7996 52.5838 41.4799 46.4159 45.9818 44.1094V41.9844C20.6359 44.3686 0 65.4379 0 91.2497C0 117.062 20.6359 138.105 46.0078 140.515V138.39C41.4799 136.058 38.7996 129.89 38.7996 118.28Z" fill="white"/>
<path d="M99.0145 91.2472C99.0145 65.5132 78.4827 44.4698 53.2148 42.0078V44.1588C57.7688 46.4912 60.3971 52.6591 60.3971 64.2174V118.303C60.3971 129.835 57.7688 136.003 53.2148 138.336V140.487C78.4827 137.999 99.0145 116.981 99.0145 91.2472Z" fill="white"/>
<path d="M859.811 118.28V64.1939C859.811 52.5838 862.492 46.4159 866.994 44.1094V41.9844C841.622 44.3686 821.012 65.4379 821.012 91.2497C821.012 117.062 841.622 138.105 866.994 140.515V138.39C862.492 136.058 859.811 129.89 859.811 118.28Z" fill="white"/>
<path d="M881.409 64.1939V90.6796H920C919.714 65.2046 899.338 44.4463 874.227 41.9844V44.1354C878.781 46.4678 881.409 52.6616 881.409 64.1939Z" fill="white"/>
<path d="M357.678 118.28V64.1939C357.678 52.5838 360.359 46.4159 364.887 44.1094V41.9844C339.515 44.3686 318.879 65.4379 318.879 91.2497C318.879 117.062 339.515 138.105 364.887 140.515V138.39C360.359 136.058 357.678 129.89 357.678 118.28Z" fill="white"/>
<path d="M379.28 64.1939V90.6796H417.871C417.585 65.2046 397.209 44.4463 372.098 41.9844V44.1354C376.652 46.4678 379.28 52.6616 379.28 64.1939Z" fill="white"/>
<path d="M795.221 121.181V75.6736C795.221 63.7784 793.738 54.8635 784.682 47.633C779.686 43.7198 773.284 41.9316 765.53 41.9316H749.188V44.1345C755.745 46.7001 758.269 52.8161 758.269 71.5789V121.155C757.879 130.951 755.693 136.705 750.15 138.337V140.462H810.939V138.337C796.496 138.363 795.221 134.916 795.221 121.181Z" fill="white"/>
<path d="M681.973 41.9322V44.135C696.389 44.135 697.664 47.7372 697.664 61.602V121C697.664 134.865 696.363 138.364 681.973 138.364V140.489H742.943V138.364C735.657 136.835 734.876 123.54 734.824 119.86V86.9992V77.3327V58.5958V42.295V41.9062H681.973V41.9322Z" fill="white"/>
<path d="M681.973 41.9322V44.135C696.389 44.135 697.664 47.7372 697.664 61.602V121C697.664 134.865 696.363 138.364 681.973 138.364V140.489H742.943V138.364C735.683 136.835 734.876 123.54 734.824 119.86V86.9992V77.3327V58.5958V42.295V41.9062H681.973V41.9322Z" fill="white"/>
<path d="M743 42H708V140H743V42Z" fill="white"/>
</g>
<defs>
<clipPath id="clip0_1341_3711">
<rect width="920" height="140.488" fill="white"/>
</clipPath>
</defs>
</svg>
