<svg width="108" height="73" viewBox="0 0 108 73" fill="none" xmlns="http://www.w3.org/2000/svg">
<path d="M10.6069 62.5242C10.6069 62.5242 10.6124 66.3463 10.5903 66.5454C10.5626 66.7998 10.5018 67.0432 10.4077 67.2755C10.2141 67.7567 9.73293 68.0665 9.213 68.0665H3.93628C3.41635 68.0665 2.95173 67.7512 2.76367 67.2644L2.75814 67.2534C2.59774 66.8496 2.56455 66.4292 2.56455 66.0033V61.0253C2.56455 60.8538 2.56455 59.1115 2.56455 57.8228H0.0976562V65.854C0.0976562 65.9812 0.0976562 66.1029 0.0976562 66.2301C0.103187 67.01 0.423995 67.7622 0.999235 68.2932C1.30345 68.5753 1.67404 68.7855 2.06675 68.9072C2.27693 68.9736 2.49818 69.0123 2.71942 69.0233C2.76367 69.0289 2.80792 69.0289 2.85217 69.0289V69.0455H9.98183C10.1644 69.0399 10.3469 69.0344 10.5239 69.0178C10.9387 68.9791 11.348 68.8519 11.7076 68.6362C12.4377 68.1992 12.941 67.4414 13.0516 66.6007C13.0959 66.2688 13.0738 62.5187 13.0738 62.5187H10.6069V62.5242Z" fill="white"/>
<path d="M15.126 57.8228C15.126 59.2387 15.126 61.3019 15.126 61.8273C15.126 62.1647 15.126 69.051 15.126 69.051H17.5542C17.5542 69.051 17.5929 62.5408 17.5929 62.1924V60.4888C17.5929 60.1569 17.5929 58.8626 17.5929 57.8228H15.126Z" fill="white"/>
<path d="M7.21747 59.1117C6.50948 59.1062 5.92871 59.5764 5.92871 60.1627C5.92871 60.7434 6.49842 61.2136 7.20088 61.2136C7.36681 61.2136 7.53275 61.2136 7.68762 61.2136C8.39008 61.2136 8.95979 60.7434 8.95979 60.1627C8.95979 59.5874 8.40114 59.1228 7.70974 59.1117C7.5604 59.1173 7.39447 59.1117 7.21747 59.1117Z" fill="white"/>
<path d="M31.0891 59.349C30.5636 59.349 30.1377 59.7749 30.1377 60.3004C30.1377 60.8258 30.5636 61.2517 31.0891 61.2517H35.3093C35.8348 61.2517 36.2607 60.8258 36.2607 60.3004C36.2607 59.7749 35.8348 59.349 35.3093 59.349H31.0891Z" fill="white"/>
<path d="M72.0739 59.1117C71.3659 59.1062 70.7852 59.5764 70.7852 60.1627C70.7852 60.7434 71.3549 61.2136 72.0573 61.2136C72.2233 61.2136 72.3892 61.2136 72.5441 61.2136C73.2465 61.2136 73.8162 60.7434 73.8162 60.1627C73.8162 59.5874 73.2576 59.1228 72.5662 59.1117C72.4224 59.1173 72.2509 59.1117 72.0739 59.1117Z" fill="white"/>
<path d="M82.6875 57.8228H81.1499L78.7715 60.0629L80.3423 60.085L82.6875 57.8228Z" fill="white"/>
<path d="M83.9504 69.051C85.6097 69.051 86.4284 67.0266 85.2336 65.8761L81.7877 62.5519L86.6883 57.8228H83.5687L80.2279 61.0474L78.6737 62.5519L80.2279 64.0564L84.3818 68.0665H73.6348V67.6295C73.6348 67.5742 73.6348 67.5521 73.6348 67.5521V67.4027C73.6348 67.1483 73.6127 64.709 73.6016 63.376C73.6016 62.8616 73.6016 62.5187 73.6016 62.5187H71.1347C71.1347 62.5187 71.1347 66.1029 71.1347 66.2301C71.1347 66.3629 71.1458 66.4956 71.1679 66.6284V69.853C71.1679 70.0521 71.1734 70.2568 71.1513 70.4559C71.1236 70.7104 71.0628 70.9537 70.9688 71.186C70.7752 71.6672 70.294 71.977 69.774 71.977H68.3359V72.9671H70.5429C70.7254 72.9615 70.9079 72.956 71.0849 72.9394C71.4998 72.9007 71.9091 72.7735 72.2686 72.5578C72.9987 72.1208 73.502 71.363 73.6127 70.5223C73.6569 70.1904 73.6348 69.8475 73.6348 69.5156V69.051H83.9504Z" fill="white"/>
<path d="M36.277 62.5239C36.277 62.5239 36.2826 66.346 36.2604 66.5451C36.2328 66.7995 36.1719 67.0429 36.0779 67.2752C35.8843 67.7564 35.4031 68.0661 34.8832 68.0661L31.2105 68.0606C31.2105 67.9555 31.2105 65.4942 31.2105 65.3725C31.205 64.5926 30.8841 63.8403 30.3089 63.3094C30.0047 63.0273 29.2137 62.5516 28.2513 62.5516C26.7966 62.5516 22.6261 62.5516 22.6261 62.5516C22.4436 62.5571 22.2611 62.5626 22.0841 62.5792C21.6692 62.618 21.2599 62.7452 20.9004 62.9609C20.1703 63.3978 19.667 64.1556 19.5563 64.9964C19.5121 65.3282 19.5121 66.3515 19.5674 66.6999C19.7057 67.5296 20.2256 68.2763 20.9612 68.6856C21.6969 69.0949 23.5941 69.0562 23.5941 69.0562H28.7381V72.9999H31.205V69.0507C31.2326 69.0507 35.6465 69.0507 35.6465 69.0507C35.829 69.0452 36.0115 69.0396 36.1885 69.023C36.6034 68.9843 37.0127 68.8571 37.3722 68.6414C38.1023 68.2044 38.6056 67.4467 38.7163 66.6059C38.7605 66.2741 38.7384 62.5239 38.7384 62.5239H36.277ZM28.7436 68.0606H23.5332C22.8695 68.0606 22.2777 67.6292 22.1007 66.9931C22.1007 66.9876 22.1007 66.9876 22.0951 66.982C21.9458 66.44 21.99 65.2618 22.0122 65.0627C22.0398 64.8083 22.1007 64.5649 22.1947 64.3326C22.3883 63.8514 22.8695 63.5417 23.3894 63.5417H27.3663C27.8863 63.5417 28.3509 63.8569 28.5389 64.3437L28.5445 64.3547C28.7049 64.7585 28.7381 65.1789 28.7381 65.6048V68.0606H28.7436Z" fill="white"/>
<path d="M102.734 62.5519L107.635 57.8228H104.515L101.175 61.0474L99.6203 62.5519L101.175 64.0564L105.328 68.0665H95.9255C95.4056 68.0665 94.941 67.7512 94.7529 67.27L94.7474 67.2589C94.587 66.8551 94.5538 66.4348 94.5538 66.0089C94.5538 65.7378 94.5538 60.4335 94.5538 57.8283H92.0869C92.0869 60.5275 92.0869 66.1416 92.0869 66.2356C92.0924 67.0155 92.4132 67.7678 92.9885 68.2988C93.2927 68.5809 93.6633 68.791 94.056 68.9127C94.2662 68.9791 94.4874 69.0178 94.7087 69.0289C94.7529 69.0344 94.7972 69.0344 94.8414 69.0344V69.051H104.897C106.556 69.051 107.375 67.0266 106.18 65.8761L102.734 62.5519Z" fill="white"/>
<path d="M90.1123 67.6289C90.1123 67.5735 90.1123 67.5514 90.1123 67.5514V67.4021C90.1123 67.0536 90.0736 62.5181 90.0736 62.5181H87.6454C87.6454 62.5181 87.6454 66.0912 87.6454 66.4341V69.8524C87.6454 70.0515 87.651 70.2562 87.6288 70.4553C87.6012 70.7097 87.5403 70.9531 87.4463 71.1854C87.2527 71.6666 86.7715 71.9763 86.2516 71.9763H84.8135V72.9664H87.0204C87.2029 72.9609 87.3855 72.9554 87.5625 72.9388C87.9773 72.9 88.3866 72.7728 88.7461 72.5571C89.4762 72.1202 89.9796 71.3624 90.0902 70.5217C90.1345 70.1898 90.1123 69.8468 90.1123 69.515V67.6289Z" fill="white"/>
<path d="M68.3839 62.1592V60.4556C68.3839 60.1237 68.3839 58.8571 68.3839 57.8228H65.917C65.917 59.2387 65.917 61.2742 65.917 61.7941C65.917 62.1315 65.917 69.0178 65.917 69.0178H68.3452C68.3452 69.0178 68.3839 62.5132 68.3839 62.1592Z" fill="white"/>
<path d="M49.2311 65.727L55.6804 71.9883L47.0408 71.9772C46.5208 71.9772 46.0562 71.6619 45.8682 71.1752L45.8626 71.1641C45.7022 70.7604 45.669 70.34 45.669 69.9141C45.669 69.6763 45.669 62.5853 45.669 62.5853H43.2021C43.2021 62.5853 43.2021 70.0192 43.2021 70.1464C43.2077 70.9263 43.5285 71.6785 44.1037 72.2095C44.4079 72.4916 44.7785 72.7018 45.1712 72.8235C45.3814 72.8899 45.6027 72.9286 45.8239 72.9396C45.8682 72.9452 45.9124 72.9452 45.9567 72.9452V72.9618L55.2545 72.9728C56.9139 72.9728 57.7325 70.9484 56.5378 69.7979L50.0608 63.7247H57.2679V62.5521H50.5199C48.8605 62.5521 48.0419 64.571 49.2311 65.727Z" fill="white"/>
<path d="M63.5899 67.6289C63.5899 67.5735 63.5899 67.5514 63.5899 67.5514V67.4021C63.5899 67.0536 63.5511 62.5181 63.5511 62.5181H61.123C61.123 62.5181 61.123 66.0912 61.123 66.4341V69.8524C61.123 70.0515 61.1285 70.2562 61.1064 70.4553C61.0787 70.7097 61.0179 70.9531 60.9238 71.1854C60.7303 71.6666 60.249 71.9763 59.7291 71.9763H58.291V72.9664H60.4979C60.6805 72.9609 60.863 72.9554 61.04 72.9388C61.4548 72.9 61.8641 72.7728 62.2237 72.5571C62.9538 72.1202 63.4571 71.3624 63.5677 70.5217C63.612 70.1898 63.5899 69.8468 63.5899 69.515V67.6289V67.6289Z" fill="white"/>
<path d="M79.9355 15.8859L69.3922 37.4218C69.4137 37.183 69.4352 36.9305 69.4352 36.678C69.4352 34.8493 68.7471 33.1706 67.6003 31.8809C66.604 30.7481 65.2565 29.902 63.7227 29.4926C63.0489 29.3083 62.3322 29.206 61.5868 29.206C61.1997 29.206 58.6123 29.3766 56.1825 30.0658C42.3063 34.0167 31.8848 41.0726 28 44L36.4361 26.7767L75.9575 15.1352L76.574 14.9578C74.7391 7.63586 67.8296 2.18362 59.5942 2.18362C52.7636 2.18362 46.8576 5.92308 43.9691 11.3753C46.6784 4.72208 53.466 0 61.4148 0C71.0263 0 78.932 6.89206 80 15.763L79.9355 15.8859Z" fill="white"/>
</svg>
