<svg width="24" height="23" viewBox="0 0 24 23" fill="none" xmlns="http://www.w3.org/2000/svg">
<path d="M12.8323 22.5871C12.3576 22.5871 11.8833 22.5871 11.4086 22.5871C11.1968 22.5599 10.9851 22.531 10.7734 22.506C8.55083 22.246 6.5552 21.4338 4.85955 20.0043C1.76246 17.3931 0.395338 14.0634 0.821032 10.0669C1.09606 7.48856 2.19841 5.25649 4.09152 3.46145C7.21491 0.49908 10.9347 -0.461344 15.135 0.594202C19.3452 1.65238 22.6339 5.25517 23.336 9.45632C23.4042 9.86486 23.4519 10.2769 23.5094 10.6872C23.5094 11.154 23.5094 11.6204 23.5094 12.0873C23.4969 12.1434 23.4769 12.1995 23.4724 12.2565C23.3213 14.1844 22.7155 15.9636 21.6145 17.5645C19.7994 20.2033 17.2943 21.8287 14.1036 22.4139C13.6837 22.4906 13.2566 22.5301 12.8323 22.5871ZM11.9662 14.9366C12.0415 14.9892 12.1026 15.0299 12.1619 15.0733C13.003 15.6831 13.8437 16.2933 14.6857 16.9021C15.2804 17.3321 15.7038 17.1752 15.8563 16.4682C16.4732 13.6123 17.0906 10.7565 17.7021 7.89974C17.7365 7.73842 17.744 7.56484 17.7258 7.40133C17.6865 7.05591 17.4004 6.87005 17.0536 6.94808C16.9604 6.96912 16.8695 7.00243 16.7799 7.03663C14.1348 8.03869 11.4901 9.04076 8.84548 10.0446C7.8305 10.4299 6.81552 10.8143 5.80455 11.2093C5.5995 11.2895 5.36236 11.4022 5.37618 11.6577C5.39 11.9185 5.64631 11.9795 5.85759 12.0452C6.70408 12.3091 7.55368 12.5633 8.39838 12.832C8.56331 12.8846 8.68679 12.864 8.83076 12.7746C10.5393 11.7107 12.2519 10.6526 13.9632 9.59264C14.3581 9.34804 14.7513 9.10038 15.1489 8.86016C15.2781 8.78213 15.4181 8.69972 15.6013 8.83035C15.5425 8.90093 15.4957 8.9715 15.4346 9.02717C15.1792 9.25993 14.9193 9.48831 14.6608 9.71801C13.2303 10.9888 11.7986 12.2578 10.3717 13.5325C10.2973 13.5987 10.2251 13.7057 10.2166 13.799C10.1609 14.4088 10.1226 15.0198 10.0798 15.6309C10.0597 15.9189 10.0437 16.2073 10.0258 16.4958C10.0459 16.5146 10.0655 16.5335 10.0856 16.5519C10.2434 16.4576 10.4217 16.3857 10.5549 16.2652C11.0292 15.8361 11.4875 15.3898 11.9662 14.9366Z" fill="white"/>
</svg>
