<svg width="495" height="369" viewBox="0 0 495 369" fill="none" xmlns="http://www.w3.org/2000/svg">
<path d="M494.386 148.027L394.021 348.703C394.226 346.478 394.431 344.125 394.431 341.773C394.431 324.732 387.881 309.09 376.964 297.072C367.48 286.517 354.653 278.632 340.052 274.817C333.639 273.1 326.816 272.146 319.72 272.146C316.036 272.146 291.405 273.736 268.276 280.158C136.185 316.974 36.98 382.722 0 410L80.3053 249.51L456.519 141.033L462.387 139.38C444.92 71.1523 379.147 20.3474 300.753 20.3474C235.731 20.3474 179.51 55.1923 152.014 105.997C177.804 44.0012 242.417 0 318.083 0C409.578 0 484.834 64.2215 495 146.883L494.386 148.027Z" fill="white" fill-opacity="0.1"/>
</svg>
