<svg width="23" height="23" viewBox="0 0 23 23" fill="none" xmlns="http://www.w3.org/2000/svg">
<path d="M10.6653 0C11.1399 0 11.6142 0 12.0888 0C12.1459 0.0122793 12.2025 0.0315754 12.26 0.0359609C14.0329 0.166209 15.693 0.66703 17.2052 1.58315C20.1445 3.36366 21.9553 5.92521 22.5895 9.27395C22.6667 9.68049 22.7068 10.094 22.7643 10.5045C22.7643 10.9716 22.7643 11.4382 22.7643 11.9052C22.7513 11.9688 22.7353 12.032 22.7255 12.096C22.6506 12.5929 22.6043 13.0955 22.4986 13.5857C21.4321 18.5365 16.9806 22.2264 11.8522 22.3997C8.8585 22.501 6.18752 21.6199 3.93637 19.668C1.00824 17.1288 -0.286026 13.9037 0.0526927 10.0818C0.268403 7.64651 1.25827 5.51122 2.92824 3.70046C4.68423 1.79629 6.8556 0.60958 9.43655 0.169279C9.8439 0.0995502 10.2557 0.0556955 10.6653 0ZM4.74975 17.8348C4.84913 17.8129 4.91287 17.8006 4.97571 17.7848C6.0351 17.5134 7.09359 17.2371 8.15566 16.9753C8.27733 16.9455 8.43688 16.9617 8.54964 17.0156C9.80201 17.6177 11.1177 17.8502 12.4993 17.6726C16.2956 17.184 18.9443 13.6989 18.3542 9.97958C17.7695 6.29447 14.2183 3.78641 10.4745 4.41485C5.89337 5.18363 3.41938 10.1506 5.61125 14.1857C5.68301 14.3181 5.6995 14.4304 5.65805 14.5755C5.3532 15.6474 5.0586 16.7222 4.74975 17.8348Z" fill="white"/>
<path d="M6.38574 16.242C6.54797 15.6556 6.69103 15.093 6.86307 14.5391C6.93616 14.304 6.91209 14.1242 6.78017 13.9102C4.70641 10.5382 6.72713 6.19487 10.6745 5.52433C13.9307 4.97133 16.985 7.30703 17.2573 10.5597C17.543 13.969 14.6746 16.8279 11.2094 16.5827C10.3086 16.5191 9.47165 16.2472 8.68903 15.803C8.59454 15.7495 8.45014 15.7306 8.34363 15.7556C7.73928 15.8973 7.13939 16.0578 6.53772 16.2113C6.49761 16.2218 6.4566 16.2279 6.38574 16.242ZM13.4075 14.2431C13.5167 14.2361 13.6227 14.2418 13.723 14.2212C14.4918 14.0628 15.0877 13.63 15.0663 12.7954C15.0641 12.7082 15.0142 12.5784 14.9464 12.5437C14.4802 12.3073 14.0042 12.0881 13.5287 11.8697C13.3834 11.803 13.2631 11.8442 13.1628 11.9771C13.0086 12.1815 12.8374 12.3736 12.6779 12.5749C12.5705 12.7104 12.4493 12.7327 12.2875 12.6691C11.2878 12.2762 10.5279 11.6127 9.97572 10.7088C9.8946 10.576 9.9053 10.4707 10.0033 10.3527C10.1437 10.1839 10.2881 10.0142 10.3978 9.82604C10.4522 9.73263 10.4758 9.58221 10.4388 9.48441C10.2743 9.04806 10.0876 8.62004 9.89772 8.19333C9.8585 8.10518 9.78853 8.01221 9.70652 7.96441C9.49839 7.84293 8.96847 7.92845 8.7853 8.10124C8.25092 8.60557 8.05839 9.21997 8.2019 9.93217C8.32491 10.5422 8.67076 11.0426 9.04246 11.5272C9.76535 12.47 10.6055 13.2818 11.7179 13.7699C12.2572 14.0063 12.8022 14.2448 13.4075 14.2431Z" fill="white"/>
</svg>
