<svg width="180" height="40" viewBox="0 0 180 40" fill="none" xmlns="http://www.w3.org/2000/svg">
<g clip-path="url(#clip0_1341_3604)">
<path d="M17.7013 7.85784C17.7013 7.85784 17.7105 14.2458 17.6736 14.5786C17.6273 15.0039 17.5257 15.4106 17.3685 15.7989C17.0449 16.6032 16.2407 17.1208 15.3717 17.1208H6.55241C5.68343 17.1208 4.90689 16.5939 4.59258 15.7804L4.58333 15.7619C4.31524 15.0871 4.25977 14.3845 4.25977 13.6726V5.35258C4.25977 5.066 4.25977 2.15397 4.25977 0H0.136719V13.423C0.136719 13.6357 0.136719 13.839 0.136719 14.0517C0.145963 15.3551 0.682145 16.6124 1.64358 17.4999C2.15202 17.9713 2.77141 18.3226 3.42777 18.526C3.77906 18.6369 4.14884 18.7017 4.51862 18.7201C4.59258 18.7294 4.66653 18.7294 4.74049 18.7294V18.7571H16.6567C16.9617 18.7479 17.2668 18.7386 17.5626 18.7109C18.256 18.6462 18.9401 18.4336 19.541 18.073C20.7612 17.3427 21.6025 16.0762 21.7874 14.671C21.8613 14.1164 21.8244 7.84859 21.8244 7.84859H17.7013V7.85784Z" fill="white"/>
<path d="M25.2539 0C25.2539 2.3666 25.2539 5.8148 25.2539 6.69303C25.2539 7.25695 25.2539 18.7664 25.2539 18.7664H29.3122C29.3122 18.7664 29.377 7.88557 29.377 7.30317V4.45586C29.377 3.90119 29.377 1.73797 29.377 0H25.2539Z" fill="white"/>
<path d="M12.0368 2.15438C10.8535 2.14513 9.88281 2.93092 9.88281 3.91084C9.88281 4.88151 10.835 5.66729 12.0091 5.66729C12.2864 5.66729 12.5637 5.66729 12.8226 5.66729C13.9966 5.66729 14.9488 4.88151 14.9488 3.91084C14.9488 2.94941 14.0151 2.17287 12.8595 2.15438C12.6099 2.16362 12.3326 2.15438 12.0368 2.15438Z" fill="white"/>
<path d="M51.9338 2.55078C51.0556 2.55078 50.3438 3.26261 50.3438 4.14084C50.3438 5.01907 51.0556 5.7309 51.9338 5.7309H58.9874C59.8656 5.7309 60.5774 5.01907 60.5774 4.14084C60.5774 3.26261 59.8656 2.55078 58.9874 2.55078H51.9338Z" fill="white"/>
<path d="M120.435 2.15438C119.252 2.14513 118.281 2.93092 118.281 3.91084C118.281 4.88151 119.233 5.66729 120.407 5.66729C120.685 5.66729 120.962 5.66729 121.221 5.66729C122.395 5.66729 123.347 4.88151 123.347 3.91084C123.347 2.94941 122.414 2.17287 121.258 2.15438C121.018 2.16362 120.731 2.15438 120.435 2.15438Z" fill="white"/>
<path d="M138.174 0H135.604L131.629 3.74403L134.254 3.78101L138.174 0Z" fill="white"/>
<path d="M140.285 18.7664C143.058 18.7664 144.426 15.3829 142.43 13.46L136.67 7.90406L144.861 0H139.647L134.063 5.38955L131.466 7.90406L134.063 10.4186L141.006 17.1208H123.044V16.3905C123.044 16.2981 123.044 16.2611 123.044 16.2611V16.0115C123.044 15.5863 123.007 11.5094 122.988 9.2815C122.988 8.42175 122.988 7.84859 122.988 7.84859H118.865C118.865 7.84859 118.865 13.839 118.865 14.0517C118.865 14.2735 118.884 14.4954 118.921 14.7173V20.1068C118.921 20.4396 118.93 20.7817 118.893 21.1145C118.847 21.5397 118.745 21.9465 118.588 22.3348C118.264 23.139 117.46 23.6567 116.591 23.6567H114.188V25.3115H117.876C118.181 25.3022 118.486 25.293 118.782 25.2653C119.475 25.2006 120.159 24.9879 120.76 24.6274C121.981 23.8971 122.822 22.6306 123.007 21.2254C123.081 20.6707 123.044 20.0976 123.044 19.5429V18.7664H140.285Z" fill="white"/>
<path d="M60.605 7.85742C60.605 7.85742 60.6142 14.2454 60.5773 14.5782C60.531 15.0034 60.4293 15.4102 60.2722 15.7985C59.9486 16.6027 59.1444 17.1204 58.2754 17.1204L52.137 17.1112C52.137 16.9355 52.137 12.8217 52.137 12.6183C52.1278 11.3149 51.5916 10.0576 50.6302 9.17014C50.1217 8.69867 48.7997 7.90364 47.1912 7.90364C44.7599 7.90364 37.7895 7.90364 37.7895 7.90364C37.4845 7.91289 37.1794 7.92213 36.8836 7.94987C36.1902 8.01458 35.5061 8.2272 34.9052 8.58774C33.685 9.31806 32.8437 10.5846 32.6588 11.9897C32.5849 12.5444 32.5849 14.2546 32.6773 14.837C32.9084 16.2237 33.7774 17.4717 35.0069 18.1558C36.2364 18.8399 39.4073 18.7752 39.4073 18.7752H48.0047V25.3665H52.1278V18.766C52.174 18.766 59.5511 18.766 59.5511 18.766C59.8562 18.7567 60.1613 18.7475 60.4571 18.7197C61.1504 18.655 61.8345 18.4424 62.4354 18.0819C63.6557 17.3515 64.4969 16.085 64.6818 14.6799C64.7558 14.1252 64.7188 7.85742 64.7188 7.85742H60.605ZM48.014 17.1112H39.3056C38.1963 17.1112 37.2071 16.3901 36.9113 15.327C36.9113 15.3177 36.9113 15.3177 36.902 15.3085C36.6524 14.4025 36.7264 12.4335 36.7634 12.1007C36.8096 11.6754 36.9113 11.2686 37.0685 10.8804C37.392 10.0761 38.1963 9.55841 39.0653 9.55841H45.7121C46.5811 9.55841 47.3576 10.0854 47.6719 10.8989L47.6812 10.9174C47.9493 11.5922 48.0047 12.2948 48.0047 13.0066V17.1112H48.014Z" fill="white"/>
<path d="M171.679 7.90406L179.869 0H174.655L169.072 5.38955L166.474 7.90406L169.072 10.4186L176.014 17.1208H160.298C159.43 17.1208 158.653 16.5939 158.339 15.7896L158.329 15.7711C158.061 15.0963 158.006 14.3937 158.006 13.6819C158.006 13.2289 158.006 4.36341 158.006 0.00924452H153.883C153.883 4.52057 153.883 13.9038 153.883 14.0609C153.892 15.3644 154.428 16.6216 155.39 17.5091C155.898 17.9806 156.517 18.3319 157.174 18.5353C157.525 18.6462 157.895 18.7109 158.265 18.7294C158.339 18.7386 158.413 18.7386 158.487 18.7386V18.7664H175.293C178.066 18.7664 179.435 15.3829 177.438 13.46L171.679 7.90406Z" fill="white"/>
<path d="M150.583 16.3896C150.583 16.2971 150.583 16.2602 150.583 16.2602V16.0106C150.583 15.4282 150.518 7.84766 150.518 7.84766H146.46C146.46 7.84766 146.46 13.8196 146.46 14.3928V20.1059C146.46 20.4387 146.469 20.7807 146.432 21.1135C146.386 21.5388 146.284 21.9455 146.127 22.3338C145.803 23.1381 144.999 23.6558 144.13 23.6558H141.727V25.3105H145.415C145.72 25.3013 146.025 25.2921 146.321 25.2643C147.014 25.1996 147.699 24.987 148.299 24.6265C149.52 23.8961 150.361 22.6296 150.546 21.2245C150.62 20.6698 150.583 20.0966 150.583 19.542V16.3896Z" fill="white"/>
<path d="M114.268 7.2477V4.40039C114.268 3.84572 114.268 1.72872 114.268 0H110.145C110.145 2.3666 110.145 5.76858 110.145 6.63756C110.145 7.20148 110.145 18.7109 110.145 18.7109H114.203C114.203 18.7109 114.268 7.83935 114.268 7.2477Z" fill="white"/>
<path d="M82.2562 13.2106L93.0353 23.6754L78.5954 23.657C77.7264 23.657 76.9499 23.13 76.6355 22.3165L76.6263 22.298C76.3582 21.6232 76.3027 20.9206 76.3027 20.2088C76.3027 19.8112 76.3027 7.95976 76.3027 7.95976H72.1797C72.1797 7.95976 72.1797 20.3844 72.1797 20.597C72.1889 21.9005 72.7251 23.1578 73.6865 24.0452C74.195 24.5167 74.8144 24.868 75.4707 25.0714C75.822 25.1823 76.1918 25.247 76.5616 25.2655C76.6355 25.2747 76.7095 25.2747 76.7835 25.2747V25.3025L92.3235 25.321C95.0968 25.321 96.465 21.9375 94.4682 20.0146L83.6429 9.86413H95.6885V7.9043H84.4102C81.6368 7.9043 80.2686 11.2785 82.2562 13.2106Z" fill="white"/>
<path d="M106.255 16.3896C106.255 16.2971 106.255 16.2602 106.255 16.2602V16.0106C106.255 15.4282 106.19 7.84766 106.19 7.84766H102.132C102.132 7.84766 102.132 13.8196 102.132 14.3928V20.1059C102.132 20.4387 102.141 20.7807 102.104 21.1135C102.058 21.5388 101.956 21.9455 101.799 22.3338C101.475 23.1381 100.671 23.6558 99.802 23.6558H97.3984V25.3105H101.087C101.392 25.3013 101.697 25.2921 101.993 25.2643C102.686 25.1996 103.37 24.987 103.971 24.6265C105.192 23.8961 106.033 22.6296 106.218 21.2245C106.292 20.6698 106.255 20.0966 106.255 19.542V16.3896Z" fill="white"/>
<path d="M3.04145 38.9202H2.27415V32.8466H0V32.1348H5.32484V32.8466H3.04145V38.9202Z" fill="white"/>
<path d="M17.0658 38.9196H16.243L15.448 37.1262H11.7502L10.9459 38.9196H10.1602L13.2478 32.0879H13.9689L17.0658 38.9196ZM13.5991 32.9939L12.046 36.4513H15.1337L13.5991 32.9939Z" fill="white"/>
<path d="M27.3821 32.1348H28.2049L25.2836 38.9665H24.6088L21.6875 32.1348H22.538L24.9601 37.9865L27.3821 32.1348Z" fill="white"/>
<path d="M39.7416 38.9196H38.9188L38.1238 37.1262H34.426L33.6217 38.9196H32.8359L35.9236 32.0879H36.6447L39.7416 38.9196ZM36.2841 32.9939L34.7311 36.4513H37.8187L36.2841 32.9939Z" fill="white"/>
<path d="M50.9217 32.1348H51.6705V38.9202H51.0604L46.6785 33.355V38.9202H45.9297V32.1348H46.6508L50.9217 37.5705V32.1348Z" fill="white"/>
<path d="M64.7572 38.9196H63.9345L63.1394 37.1262H59.4416L58.6373 38.9196H57.8516L60.9392 32.0879H61.6603L64.7572 38.9196ZM61.2905 32.9939L59.7374 36.4513H62.8251L61.2905 32.9939Z" fill="white"/>
<path d="M82.487 32.2639C82.7551 32.3471 82.9862 32.4581 83.1803 32.606C83.3745 32.7539 83.5224 32.9295 83.6241 33.1422C83.7258 33.3548 83.7812 33.5859 83.7812 33.8447C83.7812 34.0666 83.7535 34.27 83.6888 34.4364C83.6241 34.6028 83.5409 34.7507 83.4392 34.8801C83.3375 35.0095 83.2173 35.1205 83.0971 35.2037C82.9677 35.2869 82.8383 35.3608 82.7089 35.4255C82.9122 35.481 83.0971 35.5642 83.2728 35.6567C83.4484 35.7491 83.6056 35.86 83.735 35.9895C83.8644 36.1189 83.9661 36.276 84.0401 36.4517C84.114 36.6366 84.1603 36.84 84.1603 37.0711C84.1603 37.3577 84.1048 37.6257 83.9846 37.8569C83.8644 38.088 83.698 38.2821 83.4854 38.4393C83.2728 38.5964 83.0139 38.7166 82.7089 38.7998C82.4038 38.883 82.071 38.9292 81.7012 38.9292H78.6875V32.1437H81.5718C81.9138 32.1345 82.2189 32.1807 82.487 32.2639ZM82.5794 34.8524C82.866 34.649 83.0139 34.3439 83.0139 33.9372C83.0139 33.5951 82.8845 33.3178 82.6257 33.1144C82.3668 32.911 81.997 32.8094 81.5163 32.8094H79.4548V35.1575H81.4516C81.9138 35.1667 82.2929 35.0558 82.5794 34.8524ZM82.9492 37.9216C83.245 37.7089 83.393 37.4039 83.393 37.0156C83.393 36.6366 83.245 36.35 82.94 36.1466C82.6349 35.9432 82.1912 35.8416 81.5995 35.8416H79.464V38.2451H81.7382C82.2466 38.2451 82.6534 38.1342 82.9492 37.9216Z" fill="white"/>
<path d="M95.209 38.9202L93.2399 36.2856H91.2985V38.9202H90.5312V32.1348H93.4525C93.8315 32.1348 94.1643 32.181 94.4694 32.2827C94.7745 32.3751 95.0241 32.5138 95.2367 32.6987C95.4493 32.8743 95.6157 33.087 95.7267 33.3366C95.8468 33.5862 95.9023 33.8635 95.9023 34.1686C95.9023 34.4551 95.8561 34.7047 95.7636 34.9266C95.6712 35.1485 95.5418 35.3426 95.3846 35.509C95.2182 35.6754 95.0241 35.8141 94.8022 35.925C94.5804 36.036 94.3307 36.1099 94.0627 36.1561L96.1427 38.9295H95.209V38.9202ZM94.6913 33.1979C94.3862 32.9575 93.961 32.8466 93.4063 32.8466H91.3078V35.6107H93.397C93.6467 35.6107 93.887 35.583 94.0996 35.5183C94.3123 35.4535 94.4971 35.3611 94.6543 35.2409C94.8115 35.1207 94.9316 34.9728 95.0148 34.7972C95.098 34.6215 95.1443 34.4274 95.1443 34.2055C95.1443 33.771 94.9964 33.4382 94.6913 33.1979Z" fill="white"/>
<path d="M108.76 36.8661C108.594 37.2914 108.354 37.6612 108.049 37.9847C107.744 38.3083 107.383 38.5671 106.958 38.752C106.533 38.9369 106.061 39.0386 105.543 39.0386C105.026 39.0386 104.554 38.9461 104.129 38.7613C103.704 38.5764 103.343 38.3175 103.038 38.0032C102.733 37.6796 102.502 37.3099 102.336 36.8846C102.169 36.4594 102.086 36.0156 102.086 35.5442C102.086 35.0727 102.169 34.629 102.336 34.2037C102.502 33.7785 102.742 33.4087 103.047 33.0851C103.352 32.7616 103.713 32.5027 104.138 32.3178C104.563 32.1237 105.035 32.0312 105.553 32.0312C106.07 32.0312 106.542 32.1237 106.967 32.3086C107.392 32.4935 107.753 32.7523 108.058 33.0666C108.363 33.3902 108.594 33.76 108.76 34.1852C108.927 34.6105 109.01 35.0542 109.01 35.5257C109.01 35.9971 108.927 36.4409 108.76 36.8661ZM108.021 34.4441C107.891 34.102 107.707 33.8062 107.466 33.5474C107.226 33.2977 106.939 33.0944 106.616 32.9465C106.292 32.7985 105.932 32.7246 105.543 32.7246C105.155 32.7246 104.795 32.7985 104.471 32.9465C104.147 33.0944 103.861 33.2885 103.63 33.5474C103.399 33.797 103.214 34.0928 103.084 34.4348C102.955 34.7769 102.881 35.1374 102.881 35.5257C102.881 35.9139 102.946 36.2745 103.084 36.6165C103.214 36.9586 103.399 37.2544 103.639 37.5132C103.879 37.7629 104.157 37.9662 104.49 38.1141C104.813 38.2621 105.174 38.336 105.562 38.336C105.95 38.336 106.311 38.2621 106.634 38.1141C106.958 37.9662 107.244 37.7721 107.475 37.5132C107.707 37.2636 107.891 36.9678 108.021 36.6258C108.15 36.2837 108.224 35.9232 108.224 35.5349C108.224 35.1559 108.15 34.7861 108.021 34.4441Z" fill="white"/>
<path d="M121.262 38.9197H120.301L117.694 35.6287L116.252 37.0893V38.9105H115.484V32.125H116.252V36.1741L120.153 32.125H121.142L118.23 35.0925L121.262 38.9197Z" fill="white"/>
<path d="M132.206 32.8364H128.064V35.1568H131.771V35.8594H128.064V38.2352H132.252V38.9378H127.297V32.1523H132.206V32.8364Z" fill="white"/>
<path d="M143.318 38.9202L141.349 36.2856H139.408V38.9202H138.641V32.1348H141.562C141.941 32.1348 142.274 32.181 142.579 32.2827C142.884 32.3751 143.133 32.5138 143.346 32.6987C143.559 32.8743 143.725 33.087 143.836 33.3366C143.956 33.5862 144.012 33.8635 144.012 34.1686C144.012 34.4551 143.965 34.7047 143.873 34.9266C143.781 35.1485 143.651 35.3426 143.494 35.509C143.328 35.6754 143.133 35.8141 142.912 35.925C142.69 36.036 142.44 36.1099 142.172 36.1561L144.252 38.9295H143.318V38.9202ZM142.791 33.1979C142.486 32.9575 142.061 32.8466 141.506 32.8466H139.408V35.6107H141.497C141.747 35.6107 141.987 35.583 142.2 35.5183C142.412 35.4535 142.597 35.3611 142.754 35.2409C142.912 35.1207 143.032 34.9728 143.115 34.7972C143.198 34.6215 143.244 34.4274 143.244 34.2055C143.244 33.771 143.096 33.4382 142.791 33.1979Z" fill="white"/>
<path d="M156.812 38.9196H155.989L155.194 37.1262H151.496L150.692 38.9196H149.906L152.994 32.0879H153.715L156.812 38.9196ZM153.354 32.9939L151.801 36.4513H154.889L153.354 32.9939Z" fill="white"/>
<path d="M167.306 38.7344C166.844 38.9378 166.326 39.0395 165.753 39.0395C165.217 39.0395 164.736 38.9471 164.311 38.7714C163.885 38.5958 163.525 38.3462 163.229 38.0226C162.924 37.7083 162.702 37.3385 162.545 36.904C162.388 36.4788 162.305 36.0258 162.305 35.5358C162.305 35.0736 162.388 34.6206 162.554 34.1954C162.721 33.7701 162.952 33.3911 163.248 33.0675C163.543 32.744 163.904 32.4851 164.32 32.3002C164.736 32.1061 165.198 32.0137 165.707 32.0137C165.993 32.0137 166.252 32.0322 166.483 32.0691C166.724 32.1061 166.936 32.1708 167.14 32.2448C167.343 32.3187 167.537 32.4204 167.713 32.5314C167.888 32.6423 168.064 32.7717 168.23 32.9104L167.74 33.4928C167.611 33.3726 167.472 33.2709 167.334 33.1785C167.195 33.086 167.038 33.0028 166.871 32.9381C166.705 32.8734 166.529 32.8179 166.326 32.781C166.132 32.744 165.91 32.7255 165.67 32.7255C165.291 32.7255 164.949 32.7995 164.634 32.9474C164.32 33.0953 164.043 33.2987 163.821 33.5483C163.599 33.7979 163.414 34.0937 163.285 34.4357C163.155 34.7778 163.09 35.1383 163.09 35.5173C163.09 35.9241 163.155 36.3031 163.275 36.6452C163.405 36.9965 163.58 37.2923 163.812 37.5419C164.043 37.7915 164.329 37.9949 164.653 38.1335C164.986 38.2722 165.355 38.3462 165.771 38.3462C166.16 38.3462 166.52 38.2815 166.862 38.1428C167.204 38.0134 167.491 37.847 167.722 37.6621V35.9703H165.66V35.2955H168.462V37.9949C168.156 38.2907 167.768 38.5311 167.306 38.7344Z" fill="white"/>
<path d="M179.956 32.8364H175.814V35.1568H179.521V35.8594H175.814V38.2352H180.002V38.9378H175.047V32.1523H179.956V32.8364Z" fill="white"/>
</g>
<defs>
<clipPath id="clip0_1341_3604">
<rect width="180" height="39.0396" fill="white"/>
</clipPath>
</defs>
</svg>
