<svg width="25" height="71" viewBox="0 0 25 71" fill="none" xmlns="http://www.w3.org/2000/svg">
    <path d="M16.9012 68.3C16.4345 69.0333 15.9345 69.6 15.4012 70C14.8678 70.4 14.3345 70.6 13.8012 70.6C13.2678 70.6 12.8345 70.3333 12.5012 69.8C12.1678 69.3333 12.0345 68.6667 12.1012 67.8C12.1678 66.6 12.2012 64.8333 12.2012 62.5C12.2012 53.7 11.2012 45.4 9.20117 37.6C7.20117 29.7333 4.20117 21.9 0.201172 14.1L12.4012 1.19999C13.1345 0.466663 13.7678 0.099997 14.3012 0.099997C15.0345 0.099997 15.7012 0.799998 16.3012 2.2C21.6345 15.2667 24.3012 28.3 24.3012 41.3C24.3012 46.8333 23.8345 52.0333 22.9012 56.9C22.5678 58.7 21.5345 60.9667 19.8012 63.7C18.1345 66.3667 17.1678 67.9 16.9012 68.3Z"
          fill="white" fill-opacity="0.15"/>
</svg>
