<svg width="48" height="72" viewBox="0 0 48 72" fill="none" xmlns="http://www.w3.org/2000/svg">
<path d="M30.9563 35.5C30.3563 35.5667 29.5229 35.6 28.4563 35.6C27.0563 35.6 25.7563 35.5 24.5563 35.3C24.6896 38.2333 24.7563 40.4333 24.7563 41.9C24.7563 47.6333 24.2896 52.9667 23.3563 57.9C23.0229 59.7 21.9896 61.9667 20.2563 64.7C18.5896 67.3667 17.6229 68.9 17.3563 69.3C16.8896 70.0333 16.3896 70.6 15.8563 71C15.3229 71.4 14.7896 71.6 14.2563 71.6C13.7229 71.6 13.2896 71.3333 12.9563 70.8C12.6229 70.3333 12.4896 69.6667 12.5563 68.8C12.6229 67.6 12.6563 65.8333 12.6563 63.5C12.6563 54.7 11.6563 46.4 9.65625 38.6C7.65625 30.7333 4.65625 22.9 0.65625 15.1L12.8563 2.19999C13.5896 1.46666 14.2229 1.1 14.7563 1.1C15.4896 1.1 16.1563 1.8 16.7563 3.2L17.3563 4.8C18.7563 7.66666 20.7229 9.66666 23.2563 10.8C25.7896 11.9333 28.2896 12.5 30.7563 12.5C32.8896 12.5 34.7563 12.3667 36.3563 12.1C37.9563 11.7667 39.3563 10.9333 40.5563 9.59999C41.7563 8.26666 42.3563 6.23333 42.3563 3.5C42.3563 2.7 42.5896 2.06667 43.0563 1.6C43.5896 1.06666 44.1896 0.799995 44.8563 0.799995C45.4563 0.799995 45.9563 1.03333 46.3563 1.5C46.8229 1.9 47.0896 2.53333 47.1563 3.4C47.2896 5.26666 47.3563 6.73333 47.3563 7.79999C47.3563 12.1333 46.7896 16.3333 45.6562 20.4C44.5896 24.4667 42.8229 27.9333 40.3563 30.8C37.8896 33.6 34.7563 35.1667 30.9563 35.5Z" fill="white" fill-opacity="0.15"/>
</svg>
