<svg width="61" height="71" viewBox="0 0 61 71" fill="none" xmlns="http://www.w3.org/2000/svg">
    <path d="M27.3551 34.5C26.5551 34.5 25.5551 34.4333 24.3551 34.3C24.4884 37.2333 24.5551 39.4333 24.5551 40.9C24.5551 46.6333 24.0884 51.9667 23.1551 56.9C22.8217 58.7 21.7884 60.9667 20.0551 63.7C18.3884 66.3667 17.4217 67.9 17.1551 68.3C16.6884 69.0333 16.1884 69.6 15.6551 70C15.1217 70.4 14.5884 70.6 14.0551 70.6C13.5217 70.6 13.0884 70.3333 12.7551 69.8C12.4217 69.3333 12.2884 68.6667 12.3551 67.8C12.4217 66.6 12.4551 64.8333 12.4551 62.5C12.4551 53.7 11.4551 45.4 9.45508 37.6C7.45508 29.7333 4.45508 21.9 0.455078 14.1L12.6551 1.19999C13.3884 0.466663 14.0217 0.099997 14.5551 0.099997C15.3551 0.099997 15.9884 0.766663 16.4551 2.1C16.4551 2.1 16.4551 2.13333 16.4551 2.2C16.5217 2.2 16.5551 2.2 16.5551 2.2L17.3551 4.2C19.5551 9.06667 23.2551 11.5 28.4551 11.5C30.7884 11.5 32.6551 11 34.0551 9.99999C35.4551 8.93333 36.3551 7 36.7551 4.2C36.8217 3.4 37.1217 2.8 37.6551 2.4C38.1884 1.93333 38.7551 1.69999 39.3551 1.69999C39.9551 1.69999 40.4551 1.93333 40.8551 2.4C41.3217 2.86666 41.5884 3.56666 41.6551 4.5C42.1217 7.16666 42.9551 9 44.1551 9.99999C45.3551 11 46.9217 11.5 48.8551 11.5C50.5217 11.5 51.9884 10.9667 53.2551 9.9C54.5884 8.83333 55.2551 6.43333 55.2551 2.7C55.2551 1.9 55.4884 1.26666 55.9551 0.799994C56.4884 0.333329 57.0551 0.099997 57.6551 0.099997C58.2551 0.099997 58.7884 0.333329 59.2551 0.799994C59.7217 1.2 59.9884 1.83333 60.0551 2.7C60.3884 5.5 60.5551 8.2 60.5551 10.8C60.5551 17.1333 59.5551 22.5333 57.5551 27C55.5551 31.4 52.3551 33.6 47.9551 33.6C43.8217 33.6 40.7884 31.9 38.8551 28.5C36.4551 32.5 32.6217 34.5 27.3551 34.5Z"
          fill="black" fill-opacity="0.15"/>
</svg>
