<svg width="57" height="71" viewBox="0 0 57 71" fill="none" xmlns="http://www.w3.org/2000/svg">
<path d="M17.3777 68.3C16.9777 69.0333 16.4777 69.5667 15.8777 69.9C15.3444 70.3 14.8444 70.5 14.3777 70.5C13.7777 70.5 13.3111 70.2667 12.9777 69.8C12.6444 69.3333 12.5111 68.6667 12.5777 67.8C12.6444 66.6667 12.6777 64.9333 12.6777 62.6C12.6777 53.9333 11.6111 45.5 9.47774 37.3C7.41107 29.1 4.47773 21.3667 0.677734 14.1L7.17774 7.3L12.8777 1.19999C13.5444 0.533329 14.1444 0.199996 14.6777 0.199996C15.3444 0.199996 16.0444 0.866664 16.7777 2.2C18.2444 5 19.5777 8.93333 20.7777 14C21.3777 11.4 22.5777 9.06667 24.3777 7C26.1777 4.93333 28.3111 3.33333 30.7777 2.2C33.3111 0.999999 35.8444 0.399999 38.3777 0.399999C41.6444 0.399999 44.4444 1.26666 46.7777 3C49.1777 4.66666 50.9777 6.7 52.1777 9.09999C53.4444 11.4333 54.0777 13.5667 54.0777 15.5C54.0777 17.3 53.4444 18.2 52.1777 18.2C51.5777 18.2 50.8777 18 50.0777 17.6C47.4777 16.4 44.6444 15.8 41.5777 15.8C40.9777 15.8 40.0111 15.8667 38.6777 16C36.2111 16.3333 33.7777 17.2 31.3777 18.6C28.9777 20 27.3444 21.5667 26.4777 23.3C27.5444 24.0333 29.2111 24.6667 31.4777 25.2C33.8111 25.6667 36.6444 25.9 39.9777 25.9C43.5111 25.9 46.2444 25.7 48.1777 25.3C50.1111 24.8333 51.9777 24.2667 53.7777 23.6C54.5111 23.3333 55.1111 23.4 55.5777 23.8C56.0444 24.2 56.2777 24.7333 56.2777 25.4C56.2777 25.7333 56.2444 26 56.1777 26.2L51.7777 40.4C50.1111 41.8667 48.0111 43.1333 45.4777 44.2C42.9444 45.2 40.1777 45.7 37.1777 45.7C34.1777 45.7 31.5777 45.3667 29.3777 44.7C27.2444 43.9667 25.6444 43.1 24.5777 42.1C24.5777 49.4333 24.1777 54.3667 23.3777 56.9C22.9111 58.3667 22.2111 60 21.2777 61.8C20.3444 63.5333 19.0444 65.7 17.3777 68.3Z" fill="white" fill-opacity="0.15"/>
</svg>
