<svg width="50" height="72" viewBox="0 0 50 72" fill="none" xmlns="http://www.w3.org/2000/svg">
<path d="M14.5516 71.6C10.0849 71.6 6.6849 69.7 4.35156 65.9C2.01823 62.0333 0.851563 57.4333 0.851563 52.1C0.851563 49.9 1.05156 47.7667 1.45156 45.7C2.1849 41.9667 3.15156 38.6667 4.35156 35.8C5.61823 32.8667 6.85156 30.4667 8.05156 28.6C9.25156 26.6667 11.0516 23.9333 13.4516 20.4L10.2516 18.5C11.0516 16.5 12.7849 12.8333 15.4516 7.5L17.8516 2.5C18.3182 1.36666 18.9516 0.799995 19.7516 0.799995C20.2849 0.799995 21.0182 1.16666 21.9516 1.9C25.7516 5.03333 29.1849 8.16666 32.2516 11.3C35.3849 14.3667 38.5849 18.5 41.8516 23.7C45.1182 28.8333 47.2849 34.4333 48.3516 40.5C48.8849 43.5667 49.1516 46.4 49.1516 49C49.1516 55.4667 47.8849 60.8667 45.3516 65.2C42.8849 69.4667 39.3849 71.6 34.8516 71.6C29.9849 71.6 26.7849 69.3667 25.2516 64.9C24.5849 66.9 23.4182 68.5 21.7516 69.7C20.1516 70.9667 17.7516 71.6 14.5516 71.6ZM9.65156 39.2C9.25156 40.4 9.05156 41.6 9.05156 42.8C9.05156 44.6667 9.5849 46.2333 10.6516 47.5C11.7182 48.7 13.3849 49.3 15.6516 49.3C19.7182 49.3 22.0849 47.1667 22.7516 42.9C22.8849 42.1 23.2182 41.4667 23.7516 41C24.2849 40.5333 24.8516 40.3 25.4516 40.3C26.0516 40.3 26.5849 40.5333 27.0516 41C27.5849 41.4 27.8849 42.0333 27.9516 42.9C28.2849 45.2333 29.0849 46.9 30.3516 47.9C31.6849 48.8333 33.7849 49.3 36.6516 49.3C38.3182 49.3 39.5849 48.8 40.4516 47.8C41.3849 46.8 41.8516 45.5667 41.8516 44.1C41.8516 42.9667 41.5182 41.8333 40.8516 40.7C39.3182 38.2333 36.4516 35.3667 32.2516 32.1C28.1182 28.8333 24.2182 26.1667 20.5516 24.1C18.5516 25.1667 16.4182 27.3333 14.1516 30.6C11.9516 33.8667 10.4516 36.7333 9.65156 39.2Z" fill="white" fill-opacity="0.15"/>
</svg>
