<svg width="50" height="75" viewBox="0 0 50 75" fill="none" xmlns="http://www.w3.org/2000/svg">
    <path d="M7.53984 72.1C7.07318 72.7 6.50651 73.1667 5.83984 73.5C5.23984 73.9 4.63984 74.1 4.03984 74.1C3.03984 74.1 2.17318 73.7333 1.43984 73C0.773177 72.3333 0.439844 71.4 0.439844 70.2C0.439844 69.6 0.539844 68.9 0.739844 68.1C2.53984 62.5667 4.53984 57.9333 6.73984 54.2C8.93984 50.4667 12.0065 46.2333 15.9398 41.5C9.40651 37.4333 6.13984 31.7667 6.13984 24.5C6.13984 20.0333 7.17318 15.9667 9.23984 12.3C11.3732 8.63333 14.1065 5.73333 17.4398 3.6C20.7732 1.46667 24.1732 0.399999 27.6398 0.399999C32.4398 0.399999 36.3065 1.83333 39.2398 4.7C42.1732 7.56666 44.2065 10.9667 45.3398 14.9C45.4732 15.4333 45.5398 15.8333 45.5398 16.1C45.5398 16.9667 45.3065 17.6667 44.8398 18.2C44.3732 18.7333 43.7732 19 43.0398 19C42.6398 19 42.2398 18.9 41.8398 18.7C40.6398 18.0333 39.0732 17.5 37.1398 17.1C35.2065 16.7 33.1398 16.5 30.9398 16.5C30.2065 16.5 29.1065 16.5667 27.6398 16.7C24.6398 16.9667 21.8398 17.6333 19.2398 18.7C16.6398 19.7667 14.5398 21 12.9398 22.4C14.2065 24.1333 16.7065 25.6667 20.4398 27C24.1732 28.2667 27.6065 28.9 30.7398 28.9C32.0065 28.9 33.0065 28.7667 33.7398 28.5L46.3398 24.4C46.8732 24.2 47.3398 24.1 47.7398 24.1C49.0065 24.1 49.6398 24.7667 49.6398 26.1C49.6398 26.3667 49.5732 26.7667 49.4398 27.3C49.1065 28.7 48.3065 31.3 47.0398 35.1C45.8398 38.8333 44.8398 41.8667 44.0398 44.2C38.5732 46 33.9398 47.8667 30.1398 49.8C26.4065 51.7333 22.7065 54.4667 19.0398 58C15.3732 61.4667 11.5398 66.1667 7.53984 72.1Z"
          fill="black" fill-opacity="0.15"/>
</svg>
