<svg width="58" height="71" viewBox="0 0 58 71" fill="none" xmlns="http://www.w3.org/2000/svg">
    <path d="M24.6824 66.5C24.0824 57.9 21.7158 49.6 17.5824 41.6C13.4491 33.5333 7.74909 24.7 0.482422 15.1C6.48242 7.7 10.2158 3.13333 11.6824 1.4C12.4158 0.466664 13.0491 -2.6226e-06 13.5824 -2.6226e-06C14.2491 -2.6226e-06 14.9491 0.566665 15.6824 1.7C17.8158 4.96666 20.3824 10.4 23.3824 18C26.3824 25.6 28.2491 31.8667 28.9824 36.8C30.3158 31.2667 32.3824 24.7667 35.1824 17.3C38.0491 9.76666 40.4158 4.56666 42.2824 1.7C43.0158 0.566665 43.6824 -2.6226e-06 44.2824 -2.6226e-06C44.8824 -2.6226e-06 45.5491 0.466664 46.2824 1.4L55.0824 12.1L57.4824 15.1C50.2158 24.8333 44.5158 33.7 40.3824 41.7C36.2491 49.7 33.8491 57.9667 33.1824 66.5C33.1158 67.9 32.6491 69 31.7824 69.8C30.9824 70.6 30.0491 71 28.9824 71C27.8491 71 26.8491 70.6 25.9824 69.8C25.1824 69 24.7491 67.9 24.6824 66.5Z"
          fill="black" fill-opacity="0.15"/>
</svg>
