<svg width="58" height="72" viewBox="0 0 58 72" fill="none" xmlns="http://www.w3.org/2000/svg">
    <path d="M24.6824 5.1C24.7491 3.7 25.1824 2.6 25.9824 1.8C26.8491 0.999997 27.8491 0.599997 28.9824 0.599997C30.0491 0.599997 30.9824 0.999997 31.7824 1.8C32.6491 2.6 33.1158 3.7 33.1824 5.1C33.8491 13.6333 36.2491 21.9 40.3824 29.9C44.5158 37.9 50.2158 46.7667 57.4824 56.5L55.0824 59.5L46.2824 70.2C45.5491 71.1333 44.8824 71.6 44.2824 71.6C43.6824 71.6 43.0158 71.0333 42.2824 69.9C40.4158 67.0333 38.0491 61.8667 35.1824 54.4C32.3824 46.8667 30.3158 40.3333 28.9824 34.8C28.2491 39.7333 26.3824 46 23.3824 53.6C20.3824 61.2 17.8158 66.6333 15.6824 69.9C14.9491 71.0333 14.2491 71.6 13.5824 71.6C13.0491 71.6 12.4158 71.1333 11.6824 70.2C10.2158 68.4667 6.48242 63.9 0.482422 56.5C7.74909 46.9 13.4491 38.1 17.5824 30.1C21.7158 22.0333 24.0824 13.7 24.6824 5.1Z"
          fill="white" fill-opacity="0.15"/>
</svg>
